{"glyphs":{"0":{"ha":572,"x_min":69,"x_max":503,"o":"m 283 694 q 385 676 340 694 q 453 629 429 658 q 490 569 478 600 q 503 510 503 539 l 503 126 q 489 69 503 99 q 450 14 475 40 q 381 -28 425 -12 q 283 -44 338 -44 q 184 -28 228 -44 q 117 17 140 -11 q 81 74 93 44 q 69 131 69 103 l 69 515 q 131 642 69 590 q 283 694 193 694 m 319 381 q 319 500 319 499 q 312 528 319 518 q 299 539 304 538 q 283 540 293 540 q 253 511 253 540 l 253 136 q 261 116 253 124 q 275 108 269 108 q 285 107 281 107 q 319 138 319 107 q 319 381 319 149 z "},"1":{"ha":450,"x_min":69,"x_max":382,"o":"m 347 685 q 371 675 361 683 q 381 654 381 667 l 381 -8 q 371 -29 381 -21 q 346 -37 361 -37 l 233 -37 q 208 -29 218 -37 q 197 -8 197 -21 l 197 482 q 153 482 168 482 l 104 482 q 80 491 90 482 q 69 511 69 500 q 69 542 69 513 q 69 582 69 568 q 80 603 69 594 q 106 611 90 611 q 190 631 154 611 q 235 668 225 650 q 267 685 244 685 l 290 685 q 347 685 342 685 z "},"2":{"ha":568,"x_min":68,"x_max":500,"o":"m 464 115 q 488 107 478 115 q 499 86 499 99 l 499 -8 q 488 -29 499 -21 q 464 -37 478 -37 l 104 -37 q 80 -29 90 -37 q 69 -8 69 -21 l 69 19 q 69 79 69 36 q 75 94 69 86 q 138 181 97 125 q 206 278 183 244 q 260 359 229 311 q 303 440 290 407 q 315 499 315 472 q 281 539 315 539 q 270 538 274 539 q 260 533 267 538 q 251 516 254 528 q 249 486 249 504 q 249 472 249 482 q 249 458 249 463 q 238 438 249 446 q 214 429 228 429 q 186 428 207 429 q 157 428 165 428 q 104 428 115 428 q 80 437 90 428 q 69 458 69 446 l 69 482 q 84 570 69 531 q 126 637 99 610 q 192 678 153 664 q 282 693 232 693 q 435 646 371 693 q 499 510 499 599 q 457 350 499 435 q 456 347 456 349 q 301 117 399 253 q 379 117 317 117 q 464 115 460 115 z "},"3":{"ha":569,"x_min":65,"x_max":500,"o":"m 500 168 q 500 133 500 156 q 442 8 500 63 q 286 -47 385 -47 q 158 -18 210 -47 q 85 65 107 11 q 71 167 65 114 q 80 185 71 178 q 101 194 89 193 q 147 199 119 196 q 208 204 190 203 q 235 196 224 204 q 247 174 247 188 q 253 126 247 143 q 266 108 260 110 q 282 106 272 106 q 315 131 315 106 q 315 182 315 153 q 317 228 317 211 q 271 258 317 258 q 244 258 261 258 q 234 258 242 258 q 222 258 226 258 q 197 267 207 258 q 188 289 188 276 q 186 328 188 292 q 186 349 186 338 q 186 370 186 361 q 186 382 186 379 q 197 403 186 394 q 222 413 207 413 q 265 413 243 413 q 308 443 308 414 q 308 488 308 467 q 308 519 308 513 q 282 539 308 539 q 263 535 267 539 q 251 485 251 524 q 247 471 251 478 q 234 460 242 464 q 217 456 226 456 q 169 456 206 456 q 108 457 126 457 q 83 465 93 457 q 74 486 74 474 l 74 522 q 128 642 74 590 q 274 693 182 693 q 433 644 374 693 q 492 513 492 594 q 492 483 492 503 q 492 444 492 461 l 492 443 q 476 390 492 419 q 439 339 461 361 q 500 222 500 293 q 500 168 500 196 z "},"4":{"ha":604,"x_min":69,"x_max":536,"o":"m 500 254 q 524 246 514 254 q 535 225 535 238 q 535 202 535 219 q 535 176 535 185 q 535 131 535 139 q 532 118 535 124 q 524 109 529 113 q 513 103 519 106 q 500 100 507 100 q 474 100 482 100 l 474 42 l 474 -8 q 464 -29 474 -21 q 439 -37 454 -37 l 326 -37 q 309 -33 317 -37 q 297 -23 301 -29 q 292 -8 292 -17 q 292 43 292 0 q 290 100 290 69 l 229 100 q 104 100 125 100 q 80 109 90 100 q 69 131 69 118 l 69 219 q 72 231 69 225 q 238 590 97 283 q 271 665 269 660 q 304 683 281 683 l 439 683 q 464 675 454 683 q 474 654 474 667 q 474 431 474 638 q 474 254 474 294 l 500 254 m 290 299 q 290 318 290 314 q 265 263 272 278 l 263 254 q 271 254 265 254 q 281 254 274 254 q 290 254 288 254 l 290 299 z "},"5":{"ha":565,"x_min":64,"x_max":497,"o":"m 331 474 q 403 459 368 474 q 467 408 439 444 q 496 317 496 371 l 496 126 q 439 5 496 57 q 276 -47 382 -47 q 132 1 188 -47 q 69 164 65 61 q 69 165 69 165 q 71 168 69 167 q 71 172 71 171 q 72 174 72 172 q 74 176 74 175 q 75 179 74 178 q 76 181 76 181 q 81 185 79 183 q 83 186 82 186 q 86 188 85 188 q 92 190 89 189 q 97 192 94 192 q 101 193 100 192 q 132 196 108 193 q 208 203 192 200 q 237 195 225 204 q 249 172 249 186 q 261 110 247 122 q 281 106 265 106 q 313 132 313 106 q 313 217 313 149 q 313 297 313 294 q 289 324 313 324 q 253 299 265 324 l 253 276 q 242 256 253 264 q 218 247 232 247 q 163 247 199 247 q 108 247 128 247 q 84 256 94 247 q 74 276 74 264 l 74 656 q 84 676 74 667 q 108 685 94 685 q 304 685 136 685 q 432 685 432 685 q 458 676 447 685 q 468 654 468 667 l 468 560 q 458 539 468 547 q 432 531 447 531 q 329 531 421 531 q 253 531 314 531 q 253 460 253 488 q 331 474 286 474 z "},"6":{"ha":571,"x_min":68,"x_max":501,"o":"m 500 240 q 501 138 501 161 q 491 82 501 111 q 458 22 481 53 q 392 -28 436 -8 q 289 -47 349 -47 q 188 -29 232 -47 q 119 17 143 -11 q 82 76 94 46 q 69 136 69 107 q 69 297 69 178 q 69 514 69 511 q 97 607 69 565 q 174 672 125 649 q 283 694 222 694 q 438 640 381 694 q 496 493 496 585 l 496 483 q 485 463 496 471 q 460 454 475 454 l 351 454 q 327 463 338 454 q 317 483 317 471 l 317 511 q 286 540 317 540 q 267 536 275 540 q 257 526 260 532 q 254 515 254 521 l 254 422 q 331 436 288 436 q 457 388 414 436 q 500 285 500 339 q 500 240 500 279 m 286 106 q 317 131 317 106 q 317 204 317 153 q 317 265 317 243 q 289 285 317 285 q 254 261 261 285 l 254 133 q 260 117 254 124 q 272 108 265 111 q 286 106 279 106 z "},"7":{"ha":553,"x_min":69,"x_max":485,"o":"m 483 656 l 483 567 q 482 560 483 564 q 393 274 479 549 q 303 -15 306 -7 q 269 -37 296 -37 l 151 -37 q 124 -26 135 -37 q 118 0 113 -14 q 292 529 140 65 q 201 529 267 529 l 104 529 q 80 538 90 529 q 69 558 69 546 l 69 654 q 80 675 69 667 q 104 683 90 683 q 123 683 108 683 q 160 683 138 683 q 207 684 182 683 q 263 685 232 685 q 319 685 294 685 q 378 685 344 685 q 429 685 413 685 q 449 685 446 685 q 473 676 463 685 q 483 656 483 667 z "},"8":{"ha":585,"x_min":69,"x_max":517,"o":"m 515 183 q 515 138 515 161 q 453 3 515 54 q 288 -47 392 -47 q 127 8 183 -47 q 71 135 71 63 q 71 172 71 147 q 69 215 69 200 q 131 338 69 289 q 78 453 78 383 q 78 474 78 460 q 78 491 78 476 q 78 519 78 506 q 141 649 78 603 q 288 694 204 694 q 377 682 338 694 q 440 651 417 669 q 480 610 464 633 q 501 565 496 586 q 507 525 507 544 q 507 481 507 501 q 507 451 507 471 q 492 393 507 424 q 456 339 478 363 q 514 219 514 292 q 515 183 514 208 m 260 517 l 260 443 q 261 435 260 440 q 271 421 263 429 q 292 413 279 413 q 312 418 304 413 q 322 429 319 424 q 324 439 324 435 l 324 514 q 290 540 324 540 q 267 533 275 540 q 260 517 260 525 m 331 140 l 331 225 q 289 258 331 258 q 262 249 271 258 q 253 228 253 239 l 253 144 q 263 113 253 121 q 292 106 274 106 q 331 140 331 106 z "},"9":{"ha":571,"x_min":69,"x_max":501,"o":"m 282 694 q 383 676 339 694 q 452 630 428 658 q 489 571 476 601 q 501 511 501 540 q 501 350 501 494 q 500 132 500 178 q 440 3 500 54 q 286 -47 379 -47 q 133 8 190 -47 q 75 153 75 63 l 75 164 q 85 185 75 176 q 110 193 96 193 l 219 193 q 244 185 233 193 q 254 164 254 176 l 254 136 q 285 107 254 107 q 308 115 300 107 q 317 132 317 122 l 317 225 q 240 211 283 211 q 114 260 157 211 q 71 363 71 308 q 69 407 71 374 q 69 510 69 475 q 80 565 69 536 q 113 625 90 594 q 178 675 135 656 q 282 694 222 694 m 317 386 l 317 514 q 310 530 317 524 q 297 539 304 536 q 285 542 290 542 q 253 517 253 542 q 253 443 253 493 q 254 382 254 404 q 282 361 254 361 q 317 386 310 361 z "},"\u0000":{"ha":0,"x_min":0,"x_max":0,"o":""},"\n":{"ha":0,"x_min":0,"x_max":0,"o":""},"\r":{"ha":0,"x_min":0,"x_max":0,"o":""}," ":{"ha":364,"x_min":0,"x_max":0,"o":""},"!":{"ha":278,"x_min":68,"x_max":208,"o":"m 207 68 q 208 15 208 31 q 196 6 208 6 l 82 6 q 69 15 69 6 q 69 42 69 17 q 71 111 71 85 q 82 121 71 121 q 128 121 106 121 q 169 121 144 121 q 196 121 194 121 q 207 111 207 121 q 207 93 207 108 q 207 68 207 78 m 89 178 l 88 208 q 69 449 72 418 l 69 649 q 82 658 69 658 l 196 658 q 207 649 207 658 q 207 556 207 599 q 207 451 207 510 l 207 450 q 203 390 207 443 q 189 178 189 201 q 176 168 189 168 q 165 168 174 168 q 151 168 157 168 q 101 168 111 168 q 89 178 90 168 z "},"\"":{"ha":447,"x_min":68,"x_max":378,"o":"m 365 658 q 374 655 371 658 q 378 647 378 651 q 372 599 376 644 q 361 508 367 554 q 354 457 356 463 q 343 449 353 449 l 313 449 q 290 449 304 449 q 272 449 275 449 q 261 457 263 449 q 236 647 240 583 q 240 655 236 651 q 247 658 243 658 q 299 658 275 658 q 338 658 314 658 q 365 658 363 658 m 199 658 q 208 655 204 658 q 211 647 211 651 q 188 457 206 578 q 176 449 186 449 l 147 449 q 135 449 142 449 q 123 449 128 449 q 113 449 118 449 q 107 449 108 449 q 94 457 96 449 q 69 647 75 583 q 73 655 69 651 q 82 658 76 658 q 132 658 108 658 q 172 658 147 658 q 199 658 196 658 z "},"#":{"ha":599,"x_min":68,"x_max":531,"o":"m 518 528 q 527 524 524 528 q 529 517 531 521 q 521 444 524 474 q 510 436 521 436 q 500 436 508 436 q 461 436 476 436 q 440 268 447 328 q 488 268 472 267 q 497 265 493 268 q 500 257 500 261 q 490 193 499 244 l 490 185 q 478 176 489 176 l 467 176 q 429 176 443 176 q 426 144 428 165 q 420 94 424 124 q 414 51 417 65 l 410 14 q 399 6 410 6 l 303 6 q 295 9 299 6 q 292 17 292 13 q 311 176 296 51 q 244 176 278 176 l 244 174 q 225 14 228 40 q 213 6 224 6 l 118 6 q 109 9 113 6 q 107 17 106 13 q 128 176 108 40 l 110 176 q 82 176 97 176 q 73 180 76 176 q 69 188 69 183 q 70 193 69 189 q 71 200 71 197 q 78 258 78 249 q 81 265 78 263 q 89 268 85 268 q 129 268 107 268 l 138 268 l 139 272 q 158 436 154 404 q 146 436 153 436 q 110 438 119 436 q 101 440 104 438 q 99 447 99 443 q 104 497 100 457 q 107 518 107 513 q 119 528 108 528 q 168 528 135 528 q 171 544 171 543 q 185 650 181 628 q 196 658 185 658 q 289 658 274 658 q 298 655 294 658 q 301 647 301 651 q 286 528 290 574 q 353 528 299 528 q 356 544 354 531 q 358 568 357 558 q 367 650 367 646 q 379 658 368 658 q 429 658 396 658 q 474 658 463 658 q 481 655 478 658 q 485 647 485 651 q 478 583 483 635 q 471 528 472 542 q 518 528 492 528 m 326 293 q 343 436 339 404 q 275 436 314 436 q 256 268 260 304 l 322 268 q 324 278 324 269 q 326 293 325 288 z "},"$":{"ha":531,"x_min":65,"x_max":463,"o":"m 267 415 q 275 407 267 415 q 318 374 283 400 q 371 333 353 349 q 414 292 389 318 q 450 241 439 267 q 461 188 461 215 q 426 80 461 122 q 326 21 392 38 q 325 4 326 17 q 325 -21 325 -18 q 314 -31 325 -31 l 290 -31 q 249 -31 275 -31 q 215 -31 219 -31 q 204 -21 204 -29 l 204 21 q 163 37 183 26 q 117 67 142 47 q 80 122 93 86 q 71 204 67 158 q 81 213 71 211 q 167 221 107 215 l 190 222 q 199 219 196 222 q 203 213 203 217 q 224 140 199 163 q 271 125 240 125 q 291 127 281 125 q 315 142 301 129 q 328 178 328 156 q 313 217 328 197 q 282 250 297 238 q 232 285 267 263 q 178 323 197 308 q 132 365 158 338 q 94 422 106 392 q 82 490 82 453 q 87 532 82 513 q 99 566 92 551 q 118 593 107 581 q 140 614 129 606 q 163 628 151 622 q 185 638 175 635 q 204 643 196 642 l 204 661 q 206 685 206 669 q 217 694 206 694 q 260 694 232 694 q 314 694 300 694 q 325 685 325 694 q 325 657 325 675 l 325 643 q 400 606 364 635 q 447 524 436 576 q 451 467 451 504 q 442 457 451 458 q 331 447 407 454 q 322 450 325 447 q 318 457 318 453 l 318 461 q 299 531 319 514 q 269 539 288 539 q 217 489 217 539 q 233 450 217 471 q 267 415 250 429 z "},"%":{"ha":733,"x_min":69,"x_max":665,"o":"m 536 376 q 605 364 576 376 q 649 328 633 351 q 664 271 664 304 q 664 207 664 257 q 663 103 663 111 q 633 27 663 58 q 542 -4 603 -4 q 444 26 475 -4 q 413 94 413 56 l 413 276 q 428 328 413 306 q 472 364 443 351 q 536 376 500 376 m 564 97 l 564 274 q 538 300 564 300 q 524 299 529 300 q 514 290 518 297 q 510 269 510 282 q 510 178 510 250 q 511 101 511 118 q 539 74 511 74 q 564 97 564 74 m 561 658 q 570 654 567 658 q 571 644 574 650 q 404 306 565 633 q 258 11 265 26 q 247 6 254 6 l 171 6 q 162 10 165 6 q 161 19 158 14 q 217 131 167 31 q 324 347 267 232 q 427 556 381 461 q 474 653 474 650 q 486 658 478 660 q 561 658 494 658 m 321 393 q 291 317 321 349 q 199 286 261 286 q 101 316 133 286 q 69 386 69 346 l 69 568 q 104 640 69 613 q 194 668 139 668 q 262 656 233 668 q 306 619 290 643 q 321 561 321 594 q 321 499 321 549 q 321 393 321 421 m 168 393 q 197 364 168 364 q 222 388 222 364 l 222 565 q 194 590 222 590 q 181 589 186 590 q 172 581 176 588 q 167 560 167 574 q 168 468 167 549 q 168 393 168 393 z "},"&":{"ha":643,"x_min":69,"x_max":576,"o":"m 572 21 q 573 10 576 15 q 563 6 569 6 l 425 6 q 415 10 418 6 q 389 44 411 15 q 254 -4 329 -4 q 166 12 203 -4 q 111 49 129 28 q 83 96 93 69 q 71 136 72 122 q 69 160 69 150 q 167 344 69 257 q 94 513 94 446 q 147 630 94 592 q 271 668 200 668 q 399 627 353 668 q 446 514 446 586 q 415 426 446 468 q 329 332 385 385 q 385 261 349 308 q 399 318 390 285 q 401 335 401 332 q 413 342 404 342 l 426 342 q 483 342 447 342 q 528 342 518 342 q 537 338 533 342 q 539 329 540 335 q 538 324 539 328 q 536 317 536 319 q 472 150 507 214 q 539 64 482 138 q 572 21 564 32 m 272 561 q 260 560 267 561 q 245 554 253 558 q 233 540 238 550 q 228 514 228 529 q 263 426 228 483 q 317 515 317 475 q 272 561 317 561 m 272 106 q 325 132 300 106 q 268 210 307 156 l 242 244 q 210 175 210 206 q 219 131 210 147 q 242 110 229 114 q 272 106 254 106 z "},"'":{"ha":281,"x_min":68,"x_max":213,"o":"m 199 658 q 208 655 204 658 q 211 647 211 651 q 199 554 210 642 q 188 457 189 467 q 176 449 186 449 l 147 449 q 123 449 138 449 q 107 449 108 449 q 94 457 96 449 q 69 647 74 589 q 73 655 69 651 q 82 658 76 658 q 132 658 108 658 q 172 658 147 658 q 199 658 196 658 z "},"(":{"ha":385,"x_min":69,"x_max":318,"o":"m 311 21 q 315 15 313 19 q 315 7 317 11 q 308 1 314 3 q 247 -21 296 -3 l 238 -24 q 233 -25 235 -25 q 224 -21 226 -25 l 221 -19 q 188 22 204 0 q 149 79 171 43 q 110 152 126 115 q 81 236 93 189 q 69 328 69 283 q 110 513 69 418 q 222 688 150 608 q 236 690 228 693 l 253 685 q 308 664 282 674 q 315 658 313 663 q 314 650 317 654 l 310 642 q 207 328 207 469 q 311 21 207 181 z "},")":{"ha":389,"x_min":68,"x_max":319,"o":"m 161 688 q 194 647 176 672 q 245 572 213 622 q 299 457 278 522 q 319 328 319 392 q 302 223 319 278 q 258 120 285 168 q 208 40 231 72 q 163 -21 186 7 q 153 -25 160 -25 q 149 -25 150 -25 q 76 3 125 -17 q 70 8 72 4 q 71 15 68 11 q 179 328 179 197 q 175 392 179 360 q 161 455 171 425 q 142 509 151 485 q 119 561 133 533 q 98 603 106 589 q 78 639 90 617 q 71 650 72 649 q 70 658 68 654 q 76 664 72 663 q 115 678 93 671 q 147 690 136 686 q 161 688 156 693 z "},"*":{"ha":588,"x_min":65,"x_max":521,"o":"m 518 494 q 517 486 519 490 q 510 482 515 482 q 456 470 510 482 q 372 451 403 458 q 463 365 446 385 q 465 358 465 363 q 460 351 464 354 l 383 303 q 376 301 379 301 q 374 301 375 301 q 365 306 368 303 q 292 407 313 378 q 219 306 236 324 q 210 301 217 301 q 204 303 207 301 l 124 349 q 119 356 119 351 q 122 364 118 360 q 215 456 126 368 q 78 482 104 475 q 69 494 67 485 l 99 572 q 106 578 101 576 q 115 578 110 579 q 244 532 144 567 q 233 649 233 626 q 246 658 233 658 l 343 658 q 351 656 347 658 q 354 648 354 653 q 351 623 354 643 q 346 574 349 603 q 340 526 343 546 q 469 576 442 568 q 485 571 481 579 l 518 494 z "},"+":{"ha":551,"x_min":69,"x_max":482,"o":"m 469 369 q 478 367 475 369 q 482 360 482 364 l 482 289 q 469 279 482 279 q 447 279 464 279 q 407 279 431 279 q 367 279 383 279 q 348 279 361 279 q 329 279 335 279 l 329 246 q 329 163 329 217 q 318 153 329 153 l 233 153 q 221 163 221 153 q 221 272 221 200 q 221 279 221 275 q 200 279 217 279 q 172 279 183 279 q 82 279 97 279 q 69 289 69 279 q 69 329 69 292 q 69 360 69 346 q 82 369 69 369 q 112 369 83 369 q 161 369 140 369 q 222 369 208 369 q 222 399 222 378 q 222 488 222 443 q 233 497 222 497 l 318 497 q 329 488 329 497 l 329 447 q 329 408 329 435 q 329 369 329 381 q 343 369 338 369 q 469 369 465 369 z "},",":{"ha":276,"x_min":68,"x_max":208,"o":"m 196 121 q 207 111 207 121 q 207 92 207 106 q 207 72 207 78 q 207 25 207 38 q 207 24 207 25 q 207 22 207 24 q 206 21 207 22 q 206 19 206 21 q 146 -83 181 -17 q 135 -89 142 -89 q 104 -89 135 -89 q 82 -89 83 -89 q 79 -89 81 -89 q 76 -88 78 -89 q 75 -87 75 -87 q 72 -86 74 -87 l 72 -85 q 69 -82 71 -83 l 69 -81 q 69 -79 69 -81 q 69 -78 69 -78 l 69 -76 q 71 -75 69 -75 q 90 -31 72 -71 q 106 7 100 -7 q 82 6 88 6 q 69 15 69 6 q 69 42 69 29 q 69 111 69 85 q 82 121 69 121 q 128 121 106 121 q 169 121 144 121 q 196 121 194 121 z "},"-":{"ha":422,"x_min":69,"x_max":353,"o":"m 353 346 q 353 315 353 336 q 353 285 353 294 q 340 275 353 275 l 82 275 q 69 285 69 275 q 69 319 69 300 q 69 379 69 360 q 82 389 69 389 q 104 389 86 389 q 144 389 122 389 q 194 389 165 389 q 246 389 222 389 l 340 389 q 353 379 353 389 l 353 346 z "},".":{"ha":276,"x_min":69,"x_max":208,"o":"m 207 68 q 207 38 207 57 q 207 15 207 19 q 196 6 207 6 l 82 6 q 69 15 69 6 q 69 42 69 29 q 69 111 69 85 q 82 121 69 121 q 128 121 106 121 q 169 121 144 121 q 196 121 194 121 q 207 111 207 121 q 207 68 207 85 z "},"/":{"ha":506,"x_min":68,"x_max":438,"o":"m 424 688 q 433 684 429 688 q 435 675 438 681 q 349 435 433 671 q 234 117 279 242 q 185 -18 189 -7 q 174 -25 182 -24 q 144 -25 165 -25 q 117 -25 125 -25 q 82 -25 85 -25 q 72 -21 75 -25 q 69 -12 68 -17 q 138 178 78 10 q 258 511 199 347 q 319 682 317 675 q 331 689 322 689 l 350 689 q 424 688 392 688 z "},":":{"ha":276,"x_min":69,"x_max":208,"o":"m 82 346 q 69 356 69 346 q 69 382 69 369 q 69 451 69 425 q 82 461 69 461 q 88 461 83 461 q 98 461 92 461 q 113 461 104 461 q 128 461 121 461 q 196 461 183 461 q 207 451 207 461 q 207 408 207 425 q 207 379 207 397 q 207 356 207 361 q 196 346 207 346 l 82 346 m 207 111 q 207 68 207 86 q 207 39 207 57 q 207 15 207 21 q 196 6 207 6 l 82 6 q 69 15 69 6 q 69 42 69 29 q 69 111 69 83 q 82 121 69 121 q 128 121 106 121 q 169 121 144 121 q 196 121 194 121 q 207 111 207 121 z "},";":{"ha":276,"x_min":68,"x_max":208,"o":"m 82 346 q 69 356 69 346 q 69 382 69 357 q 69 451 69 425 q 82 461 69 461 q 86 461 83 461 q 93 461 89 461 q 103 461 97 461 q 115 461 108 461 q 128 461 122 461 q 196 461 183 461 q 207 451 207 461 q 207 433 207 449 q 207 408 207 418 q 207 356 207 369 q 196 346 207 346 l 82 346 m 196 121 q 207 111 207 121 q 207 92 207 106 q 207 72 207 78 q 207 25 207 38 q 207 24 207 25 q 207 22 207 24 q 207 21 207 22 q 206 19 207 21 q 146 -83 181 -17 q 135 -89 143 -89 q 106 -89 135 -89 q 82 -89 83 -89 q 80 -89 81 -89 q 78 -87 79 -89 q 74 -86 75 -87 q 72 -85 72 -86 q 71 -83 72 -85 q 71 -82 71 -82 l 71 -81 q 69 -79 69 -81 q 69 -78 69 -78 l 69 -76 q 71 -75 71 -76 q 90 -31 74 -69 q 97 -17 93 -25 q 102 -3 100 -8 q 106 7 104 3 q 82 6 88 6 q 69 15 69 6 q 69 42 69 29 q 71 111 71 85 q 82 121 71 121 q 128 121 106 121 q 169 121 144 121 q 196 121 194 121 z "},"<":{"ha":540,"x_min":68,"x_max":472,"o":"m 471 193 q 471 156 471 183 q 465 147 471 151 q 460 146 463 146 q 454 147 457 146 q 76 282 208 232 q 69 292 69 285 q 69 311 69 299 q 69 360 69 343 q 78 369 69 367 q 264 438 90 374 q 454 507 397 486 q 465 506 460 508 q 469 497 469 503 q 471 451 469 486 q 471 415 471 429 q 464 406 471 408 q 297 349 447 400 q 231 325 242 329 q 261 315 242 322 q 303 301 281 308 q 343 288 325 293 q 464 246 456 249 q 471 236 471 243 q 471 193 471 207 z "},"=":{"ha":540,"x_min":68,"x_max":472,"o":"m 458 290 q 471 281 471 290 l 471 210 q 460 200 471 200 l 82 200 q 69 210 69 200 l 69 281 q 82 290 69 290 q 177 290 90 290 q 318 290 264 290 q 458 290 388 290 m 458 447 q 471 438 471 447 l 471 368 q 460 357 471 357 l 82 357 q 69 368 69 357 l 69 438 q 82 447 69 447 q 318 447 225 447 q 458 447 388 447 z "},">":{"ha":540,"x_min":68,"x_max":472,"o":"m 471 360 q 471 311 471 342 q 471 292 471 299 q 464 282 471 285 q 86 147 342 236 q 82 146 83 146 q 75 147 78 146 q 69 156 69 151 q 69 175 69 163 q 69 193 69 188 q 69 236 69 221 q 76 246 69 243 q 197 288 101 254 q 310 325 282 315 q 243 349 251 346 q 78 406 86 403 q 71 415 71 408 q 71 451 71 421 q 71 497 71 486 q 76 506 71 503 q 88 507 82 508 q 276 438 138 489 q 464 369 450 374 q 471 360 471 367 z "},"?":{"ha":524,"x_min":68,"x_max":456,"o":"m 254 668 q 344 655 306 668 q 403 624 383 642 q 435 581 424 606 q 451 539 447 557 q 454 503 454 521 q 438 423 454 461 q 407 366 422 385 q 361 315 392 347 q 337 290 344 299 q 319 266 329 281 q 303 238 308 251 q 299 210 299 224 l 299 208 q 299 178 299 194 q 286 168 299 168 l 189 168 q 178 178 178 168 q 178 201 178 189 q 179 217 179 214 q 192 279 179 249 q 219 327 206 310 q 257 372 232 344 q 287 407 276 394 q 307 440 297 419 q 317 481 317 461 q 317 499 317 490 q 318 506 318 503 q 310 535 318 524 q 290 551 303 547 q 272 557 278 556 q 260 558 265 558 q 218 543 232 558 q 204 507 204 528 q 203 472 204 485 q 203 461 203 464 q 192 451 203 451 q 142 451 183 451 q 82 453 93 453 q 69 463 69 453 q 69 482 69 476 q 69 501 69 490 q 78 552 69 526 q 107 606 88 578 q 165 651 126 633 q 254 668 203 668 m 307 111 q 308 92 307 107 q 308 68 308 78 q 308 15 308 29 q 296 6 308 6 l 182 6 q 169 15 169 6 q 169 42 169 17 q 171 111 171 85 q 182 121 171 121 q 229 121 206 121 q 269 121 244 121 q 296 121 294 121 q 307 111 307 121 z "},"@":{"ha":858,"x_min":61,"x_max":817,"o":"m 711 614 q 781 326 817 510 q 711 172 758 219 q 578 125 664 125 q 523 138 549 125 q 485 168 497 150 q 369 124 447 124 q 290 150 321 124 q 258 246 251 186 q 260 267 260 260 q 281 401 267 333 q 413 511 301 511 q 499 481 463 511 q 499 482 499 482 q 500 493 500 488 q 511 501 501 501 q 540 501 518 501 q 569 501 561 501 q 617 501 610 501 q 624 499 621 501 q 628 492 628 496 q 615 399 628 483 q 593 236 593 257 q 611 222 593 222 q 627 230 617 222 q 651 266 638 238 q 672 338 665 294 q 626 547 696 481 q 457 600 572 600 q 281 535 342 600 q 197 326 219 469 q 254 113 176 186 q 471 47 324 47 q 633 90 551 47 q 650 99 646 96 q 663 98 657 101 q 668 89 668 94 q 663 19 667 67 l 661 3 q 656 -4 660 -1 q 443 -49 578 -49 q 164 47 263 -49 q 83 182 103 104 q 74 329 63 260 q 76 349 75 338 q 122 508 90 442 q 483 694 211 694 q 711 614 628 694 m 472 274 q 483 361 479 306 q 472 404 483 393 q 443 415 461 415 q 401 378 404 415 q 394 325 400 364 q 386 247 386 265 q 415 218 386 218 q 472 274 463 218 z "},"A":{"ha":686,"x_min":14,"x_max":651,"o":"m 649 -3 q 649 -3 649 -3 q 650 -4 650 -3 q 650 -14 651 -10 q 650 -15 650 -15 q 649 -17 649 -17 q 649 -18 649 -17 q 647 -21 647 -19 q 646 -22 647 -22 l 646 -24 q 644 -25 644 -25 q 643 -26 644 -26 q 643 -28 643 -26 q 640 -29 642 -29 q 639 -30 639 -29 q 638 -31 639 -31 q 636 -32 636 -32 q 634 -32 635 -32 q 632 -33 633 -32 q 631 -33 632 -33 q 628 -33 629 -33 q 626 -33 628 -33 l 457 -33 q 453 -33 454 -33 q 450 -33 451 -33 q 449 -33 450 -33 q 447 -32 447 -32 q 443 -31 444 -31 q 442 -29 443 -29 q 438 -25 439 -28 q 436 -24 438 -25 q 435 -21 436 -22 q 434 -19 435 -19 q 433 -18 433 -19 q 433 -17 433 -18 q 433 -15 433 -15 l 432 -14 q 401 111 432 -10 l 260 111 q 238 22 246 53 q 228 -15 229 -10 l 228 -17 q 228 -18 228 -17 q 226 -19 226 -19 q 219 -29 224 -25 q 218 -31 218 -29 q 215 -31 217 -31 q 213 -32 214 -32 q 210 -33 211 -33 q 208 -33 210 -33 q 204 -33 207 -33 l 39 -33 q 36 -33 38 -33 q 34 -33 35 -33 q 33 -33 33 -33 q 32 -33 32 -33 q 30 -32 31 -32 q 28 -32 29 -32 q 26 -31 26 -31 q 25 -29 25 -31 q 22 -28 24 -28 q 21 -26 21 -26 q 19 -25 19 -26 q 17 -22 18 -24 q 17 -21 17 -21 q 15 -17 15 -19 q 15 -15 15 -17 q 14 -14 14 -15 q 14 -10 14 -11 q 14 -7 14 -8 q 14 -4 14 -6 q 15 -3 15 -3 q 154 494 18 8 q 174 569 164 532 q 191 627 185 607 q 197 649 197 647 l 197 650 q 198 652 197 651 q 199 654 199 653 q 200 656 200 656 l 200 657 q 203 660 201 658 q 205 662 204 661 q 207 663 206 663 q 210 664 208 664 q 210 665 210 664 q 211 665 211 665 q 214 665 213 665 q 215 667 215 667 q 218 667 217 667 q 219 667 219 667 l 221 667 l 222 667 q 299 667 261 667 l 314 667 q 339 667 322 667 q 364 667 356 667 q 401 667 381 667 q 431 667 421 667 q 443 667 442 667 q 446 667 444 667 q 449 667 447 667 q 450 665 450 665 q 451 665 450 665 q 460 660 457 664 q 461 660 461 660 l 463 658 q 464 656 463 657 q 465 653 465 654 q 467 651 465 651 q 467 650 467 650 q 467 649 467 649 q 468 647 467 649 q 600 175 475 619 q 649 -1 644 17 l 649 -3 m 350 321 q 340 362 347 335 q 331 401 333 389 q 311 321 322 365 q 303 289 308 311 q 294 254 297 267 l 367 254 q 358 288 364 265 q 350 321 353 310 z "},"À":{"ha":686,"x_min":14,"x_max":651,"o":"m 649 -3 q 649 -3 649 -3 q 650 -4 650 -3 q 650 -14 651 -10 q 650 -15 650 -15 q 649 -17 649 -17 q 649 -18 649 -17 q 647 -21 647 -19 q 646 -22 647 -22 l 646 -24 q 644 -25 644 -25 q 643 -26 644 -26 q 643 -28 643 -26 q 640 -29 642 -29 q 639 -30 639 -29 q 638 -31 639 -31 q 636 -32 636 -32 q 634 -32 635 -32 q 632 -33 633 -32 q 631 -33 632 -33 q 628 -33 629 -33 q 626 -33 628 -33 l 457 -33 q 453 -33 454 -33 q 450 -33 451 -33 q 449 -33 450 -33 q 447 -32 447 -32 q 443 -31 444 -31 q 442 -29 443 -29 q 438 -25 439 -28 q 436 -24 438 -25 q 435 -21 436 -22 q 434 -19 435 -19 q 433 -18 433 -19 q 433 -17 433 -18 q 433 -15 433 -15 l 432 -14 q 401 111 432 -10 l 260 111 q 238 22 246 53 q 228 -15 229 -10 l 228 -17 q 228 -18 228 -17 q 226 -19 226 -19 q 219 -29 224 -25 q 218 -31 218 -29 q 215 -31 217 -31 q 213 -32 214 -32 q 210 -33 211 -33 q 208 -33 210 -33 q 204 -33 207 -33 l 39 -33 q 36 -33 38 -33 q 34 -33 35 -33 q 33 -33 33 -33 q 32 -33 32 -33 q 30 -32 31 -32 q 28 -32 29 -32 q 26 -31 26 -31 q 25 -29 25 -31 q 22 -28 24 -28 q 21 -26 21 -26 q 19 -25 19 -26 q 17 -22 18 -24 q 17 -21 17 -21 q 15 -17 15 -19 q 15 -15 15 -17 q 14 -14 14 -15 q 14 -10 14 -11 q 14 -7 14 -8 q 14 -4 14 -6 q 15 -3 15 -3 q 154 494 18 8 q 174 569 164 532 q 191 627 185 607 q 197 649 197 647 l 197 650 q 198 652 197 651 q 199 654 199 653 q 200 656 200 656 l 200 657 q 203 660 201 658 q 205 662 204 661 q 207 663 206 663 q 210 664 208 664 q 210 665 210 664 q 211 665 211 665 q 214 665 213 665 q 215 667 215 667 q 218 667 217 667 q 219 667 219 667 l 221 667 l 222 667 q 299 667 261 667 l 314 667 q 339 667 322 667 q 364 667 356 667 q 401 667 381 667 q 431 667 421 667 q 443 667 442 667 q 446 667 444 667 q 449 667 447 667 q 450 665 450 665 q 451 665 450 665 q 460 660 457 664 q 461 660 461 660 l 463 658 q 464 656 463 657 q 465 653 465 654 q 467 651 465 651 q 467 650 467 650 q 467 649 467 649 q 468 647 467 649 q 600 175 475 619 q 649 -1 644 17 l 649 -3 m 350 321 q 340 362 347 335 q 331 401 333 389 q 311 321 322 365 q 303 289 308 311 q 294 254 297 267 l 367 254 q 358 288 364 265 q 350 321 353 310 z "},"Á":{"ha":686,"x_min":14,"x_max":651,"o":"m 649 -3 q 649 -3 649 -3 q 650 -4 650 -3 q 650 -14 651 -10 q 650 -15 650 -15 q 649 -17 649 -17 q 649 -18 649 -17 q 647 -21 647 -19 q 646 -22 647 -22 l 646 -24 q 644 -25 644 -25 q 643 -26 644 -26 q 643 -28 643 -26 q 640 -29 642 -29 q 639 -30 639 -29 q 638 -31 639 -31 q 636 -32 636 -32 q 634 -32 635 -32 q 632 -33 633 -32 q 631 -33 632 -33 q 628 -33 629 -33 q 626 -33 628 -33 l 457 -33 q 453 -33 454 -33 q 450 -33 451 -33 q 449 -33 450 -33 q 447 -32 447 -32 q 443 -31 444 -31 q 442 -29 443 -29 q 438 -25 439 -28 q 436 -24 438 -25 q 435 -21 436 -22 q 434 -19 435 -19 q 433 -18 433 -19 q 433 -17 433 -18 q 433 -15 433 -15 l 432 -14 q 401 111 432 -10 l 260 111 q 238 22 246 53 q 228 -15 229 -10 l 228 -17 q 228 -18 228 -17 q 226 -19 226 -19 q 219 -29 224 -25 q 218 -31 218 -29 q 215 -31 217 -31 q 213 -32 214 -32 q 210 -33 211 -33 q 208 -33 210 -33 q 204 -33 207 -33 l 39 -33 q 36 -33 38 -33 q 34 -33 35 -33 q 33 -33 33 -33 q 32 -33 32 -33 q 30 -32 31 -32 q 28 -32 29 -32 q 26 -31 26 -31 q 25 -29 25 -31 q 22 -28 24 -28 q 21 -26 21 -26 q 19 -25 19 -26 q 17 -22 18 -24 q 17 -21 17 -21 q 15 -17 15 -19 q 15 -15 15 -17 q 14 -14 14 -15 q 14 -10 14 -11 q 14 -7 14 -8 q 14 -4 14 -6 q 15 -3 15 -3 q 154 494 18 8 q 174 569 164 532 q 191 627 185 607 q 197 649 197 647 l 197 650 q 198 652 197 651 q 199 654 199 653 q 200 656 200 656 l 200 657 q 203 660 201 658 q 205 662 204 661 q 207 663 206 663 q 210 664 208 664 q 210 665 210 664 q 211 665 211 665 q 214 665 213 665 q 215 667 215 667 q 218 667 217 667 q 219 667 219 667 l 221 667 l 222 667 q 299 667 261 667 l 314 667 q 339 667 322 667 q 364 667 356 667 q 401 667 381 667 q 431 667 421 667 q 443 667 442 667 q 446 667 444 667 q 449 667 447 667 q 450 665 450 665 q 451 665 450 665 q 460 660 457 664 q 461 660 461 660 l 463 658 q 464 656 463 657 q 465 653 465 654 q 467 651 465 651 q 467 650 467 650 q 467 649 467 649 q 468 647 467 649 q 600 175 475 619 q 649 -1 644 17 l 649 -3 m 350 321 q 340 362 347 335 q 331 401 333 389 q 311 321 322 365 q 303 289 308 311 q 294 254 297 267 l 367 254 q 358 288 364 265 q 350 321 353 310 z "},"Â":{"ha":686,"x_min":14,"x_max":651,"o":"m 649 -3 q 649 -3 649 -3 q 650 -4 650 -3 q 650 -14 651 -10 q 650 -15 650 -15 q 649 -17 649 -17 q 649 -18 649 -17 q 647 -21 647 -19 q 646 -22 647 -22 l 646 -24 q 644 -25 644 -25 q 643 -26 644 -26 q 643 -28 643 -26 q 640 -29 642 -29 q 639 -30 639 -29 q 638 -31 639 -31 q 636 -32 636 -32 q 634 -32 635 -32 q 632 -33 633 -32 q 631 -33 632 -33 q 628 -33 629 -33 q 626 -33 628 -33 l 457 -33 q 453 -33 454 -33 q 450 -33 451 -33 q 449 -33 450 -33 q 447 -32 447 -32 q 443 -31 444 -31 q 442 -29 443 -29 q 438 -25 439 -28 q 436 -24 438 -25 q 435 -21 436 -22 q 434 -19 435 -19 q 433 -18 433 -19 q 433 -17 433 -18 q 433 -15 433 -15 l 432 -14 q 401 111 432 -10 l 260 111 q 238 22 246 53 q 228 -15 229 -10 l 228 -17 q 228 -18 228 -17 q 226 -19 226 -19 q 219 -29 224 -25 q 218 -31 218 -29 q 215 -31 217 -31 q 213 -32 214 -32 q 210 -33 211 -33 q 208 -33 210 -33 q 204 -33 207 -33 l 39 -33 q 36 -33 38 -33 q 34 -33 35 -33 q 33 -33 33 -33 q 32 -33 32 -33 q 30 -32 31 -32 q 28 -32 29 -32 q 26 -31 26 -31 q 25 -29 25 -31 q 22 -28 24 -28 q 21 -26 21 -26 q 19 -25 19 -26 q 17 -22 18 -24 q 17 -21 17 -21 q 15 -17 15 -19 q 15 -15 15 -17 q 14 -14 14 -15 q 14 -10 14 -11 q 14 -7 14 -8 q 14 -4 14 -6 q 15 -3 15 -3 q 154 494 18 8 q 174 569 164 532 q 191 627 185 607 q 197 649 197 647 l 197 650 q 198 652 197 651 q 199 654 199 653 q 200 656 200 656 l 200 657 q 203 660 201 658 q 205 662 204 661 q 207 663 206 663 q 210 664 208 664 q 210 665 210 664 q 211 665 211 665 q 214 665 213 665 q 215 667 215 667 q 218 667 217 667 q 219 667 219 667 l 221 667 l 222 667 q 299 667 261 667 l 314 667 q 339 667 322 667 q 364 667 356 667 q 401 667 381 667 q 431 667 421 667 q 443 667 442 667 q 446 667 444 667 q 449 667 447 667 q 450 665 450 665 q 451 665 450 665 q 460 660 457 664 q 461 660 461 660 l 463 658 q 464 656 463 657 q 465 653 465 654 q 467 651 465 651 q 467 650 467 650 q 467 649 467 649 q 468 647 467 649 q 600 175 475 619 q 649 -1 644 17 l 649 -3 m 350 321 q 340 362 347 335 q 331 401 333 389 q 311 321 322 365 q 303 289 308 311 q 294 254 297 267 l 367 254 q 358 288 364 265 q 350 321 353 310 z "},"Ã":{"ha":686,"x_min":14,"x_max":651,"o":"m 649 -3 q 649 -3 649 -3 q 650 -4 650 -3 q 650 -14 651 -10 q 650 -15 650 -15 q 649 -17 649 -17 q 649 -18 649 -17 q 647 -21 647 -19 q 646 -22 647 -22 l 646 -24 q 644 -25 644 -25 q 643 -26 644 -26 q 643 -28 643 -26 q 640 -29 642 -29 q 639 -30 639 -29 q 638 -31 639 -31 q 636 -32 636 -32 q 634 -32 635 -32 q 632 -33 633 -32 q 631 -33 632 -33 q 628 -33 629 -33 q 626 -33 628 -33 l 457 -33 q 453 -33 454 -33 q 450 -33 451 -33 q 449 -33 450 -33 q 447 -32 447 -32 q 443 -31 444 -31 q 442 -29 443 -29 q 438 -25 439 -28 q 436 -24 438 -25 q 435 -21 436 -22 q 434 -19 435 -19 q 433 -18 433 -19 q 433 -17 433 -18 q 433 -15 433 -15 l 432 -14 q 401 111 432 -10 l 260 111 q 238 22 246 53 q 228 -15 229 -10 l 228 -17 q 228 -18 228 -17 q 226 -19 226 -19 q 219 -29 224 -25 q 218 -31 218 -29 q 215 -31 217 -31 q 213 -32 214 -32 q 210 -33 211 -33 q 208 -33 210 -33 q 204 -33 207 -33 l 39 -33 q 36 -33 38 -33 q 34 -33 35 -33 q 33 -33 33 -33 q 32 -33 32 -33 q 30 -32 31 -32 q 28 -32 29 -32 q 26 -31 26 -31 q 25 -29 25 -31 q 22 -28 24 -28 q 21 -26 21 -26 q 19 -25 19 -26 q 17 -22 18 -24 q 17 -21 17 -21 q 15 -17 15 -19 q 15 -15 15 -17 q 14 -14 14 -15 q 14 -10 14 -11 q 14 -7 14 -8 q 14 -4 14 -6 q 15 -3 15 -3 q 154 494 18 8 q 174 569 164 532 q 191 627 185 607 q 197 649 197 647 l 197 650 q 198 652 197 651 q 199 654 199 653 q 200 656 200 656 l 200 657 q 203 660 201 658 q 205 662 204 661 q 207 663 206 663 q 210 664 208 664 q 210 665 210 664 q 211 665 211 665 q 214 665 213 665 q 215 667 215 667 q 218 667 217 667 q 219 667 219 667 l 221 667 l 222 667 q 299 667 261 667 l 314 667 q 339 667 322 667 q 364 667 356 667 q 401 667 381 667 q 431 667 421 667 q 443 667 442 667 q 446 667 444 667 q 449 667 447 667 q 450 665 450 665 q 451 665 450 665 q 460 660 457 664 q 461 660 461 660 l 463 658 q 464 656 463 657 q 465 653 465 654 q 467 651 465 651 q 467 650 467 650 q 467 649 467 649 q 468 647 467 649 q 600 175 475 619 q 649 -1 644 17 l 649 -3 m 350 321 q 340 362 347 335 q 331 401 333 389 q 311 321 322 365 q 303 289 308 311 q 294 254 297 267 l 367 254 q 358 288 364 265 q 350 321 353 310 z "},"Ä":{"ha":686,"x_min":14,"x_max":651,"o":"m 649 -3 q 649 -3 649 -3 q 650 -4 650 -3 q 650 -14 651 -10 q 650 -15 650 -15 q 649 -17 649 -17 q 649 -18 649 -17 q 647 -21 647 -19 q 646 -22 647 -22 l 646 -24 q 644 -25 644 -25 q 643 -26 644 -26 q 643 -28 643 -26 q 640 -29 642 -29 q 639 -30 639 -29 q 638 -31 639 -31 q 636 -32 636 -32 q 634 -32 635 -32 q 632 -33 633 -32 q 631 -33 632 -33 q 628 -33 629 -33 q 626 -33 628 -33 l 457 -33 q 453 -33 454 -33 q 450 -33 451 -33 q 449 -33 450 -33 q 447 -32 447 -32 q 443 -31 444 -31 q 442 -29 443 -29 q 438 -25 439 -28 q 436 -24 438 -25 q 435 -21 436 -22 q 434 -19 435 -19 q 433 -18 433 -19 q 433 -17 433 -18 q 433 -15 433 -15 l 432 -14 q 401 111 432 -10 l 260 111 q 238 22 246 53 q 228 -15 229 -10 l 228 -17 q 228 -18 228 -17 q 226 -19 226 -19 q 219 -29 224 -25 q 218 -31 218 -29 q 215 -31 217 -31 q 213 -32 214 -32 q 210 -33 211 -33 q 208 -33 210 -33 q 204 -33 207 -33 l 39 -33 q 36 -33 38 -33 q 34 -33 35 -33 q 33 -33 33 -33 q 32 -33 32 -33 q 30 -32 31 -32 q 28 -32 29 -32 q 26 -31 26 -31 q 25 -29 25 -31 q 22 -28 24 -28 q 21 -26 21 -26 q 19 -25 19 -26 q 17 -22 18 -24 q 17 -21 17 -21 q 15 -17 15 -19 q 15 -15 15 -17 q 14 -14 14 -15 q 14 -10 14 -11 q 14 -7 14 -8 q 14 -4 14 -6 q 15 -3 15 -3 q 154 494 18 8 q 174 569 164 532 q 191 627 185 607 q 197 649 197 647 l 197 650 q 198 652 197 651 q 199 654 199 653 q 200 656 200 656 l 200 657 q 203 660 201 658 q 205 662 204 661 q 207 663 206 663 q 210 664 208 664 q 210 665 210 664 q 211 665 211 665 q 214 665 213 665 q 215 667 215 667 q 218 667 217 667 q 219 667 219 667 l 221 667 l 222 667 q 299 667 261 667 l 314 667 q 339 667 322 667 q 364 667 356 667 q 401 667 381 667 q 431 667 421 667 q 443 667 442 667 q 446 667 444 667 q 449 667 447 667 q 450 665 450 665 q 451 665 450 665 q 460 660 457 664 q 461 660 461 660 l 463 658 q 464 656 463 657 q 465 653 465 654 q 467 651 465 651 q 467 650 467 650 q 467 649 467 649 q 468 647 467 649 q 600 175 475 619 q 649 -1 644 17 l 649 -3 m 350 321 q 340 362 347 335 q 331 401 333 389 q 311 321 322 365 q 303 289 308 311 q 294 254 297 267 l 367 254 q 358 288 364 265 q 350 321 353 310 z "},"Å":{"ha":686,"x_min":14,"x_max":651,"o":"m 649 -3 q 649 -3 649 -3 q 650 -4 650 -3 q 650 -14 651 -10 q 650 -15 650 -15 q 649 -17 649 -17 q 649 -18 649 -17 q 647 -21 647 -19 q 646 -22 647 -22 l 646 -24 q 644 -25 644 -25 q 643 -26 644 -26 q 643 -28 643 -26 q 640 -29 642 -29 q 639 -30 639 -29 q 638 -31 639 -31 q 636 -32 636 -32 q 634 -32 635 -32 q 632 -33 633 -32 q 631 -33 632 -33 q 628 -33 629 -33 q 626 -33 628 -33 l 457 -33 q 453 -33 454 -33 q 450 -33 451 -33 q 449 -33 450 -33 q 447 -32 447 -32 q 443 -31 444 -31 q 442 -29 443 -29 q 438 -25 439 -28 q 436 -24 438 -25 q 435 -21 436 -22 q 434 -19 435 -19 q 433 -18 433 -19 q 433 -17 433 -18 q 433 -15 433 -15 l 432 -14 q 401 111 432 -10 l 260 111 q 238 22 246 53 q 228 -15 229 -10 l 228 -17 q 228 -18 228 -17 q 226 -19 226 -19 q 219 -29 224 -25 q 218 -31 218 -29 q 215 -31 217 -31 q 213 -32 214 -32 q 210 -33 211 -33 q 208 -33 210 -33 q 204 -33 207 -33 l 39 -33 q 36 -33 38 -33 q 34 -33 35 -33 q 33 -33 33 -33 q 32 -33 32 -33 q 30 -32 31 -32 q 28 -32 29 -32 q 26 -31 26 -31 q 25 -29 25 -31 q 22 -28 24 -28 q 21 -26 21 -26 q 19 -25 19 -26 q 17 -22 18 -24 q 17 -21 17 -21 q 15 -17 15 -19 q 15 -15 15 -17 q 14 -14 14 -15 q 14 -10 14 -11 q 14 -7 14 -8 q 14 -4 14 -6 q 15 -3 15 -3 q 154 494 18 8 q 174 569 164 532 q 191 627 185 607 q 197 649 197 647 l 197 650 q 198 652 197 651 q 199 654 199 653 q 200 656 200 656 l 200 657 q 203 660 201 658 q 205 662 204 661 q 207 663 206 663 q 210 664 208 664 q 210 665 210 664 q 211 665 211 665 q 214 665 213 665 q 215 667 215 667 q 218 667 217 667 q 219 667 219 667 l 221 667 l 222 667 q 299 667 261 667 l 314 667 q 339 667 322 667 q 364 667 356 667 q 401 667 381 667 q 431 667 421 667 q 443 667 442 667 q 446 667 444 667 q 449 667 447 667 q 450 665 450 665 q 451 665 450 665 q 460 660 457 664 q 461 660 461 660 l 463 658 q 464 656 463 657 q 465 653 465 654 q 467 651 465 651 q 467 650 467 650 q 467 649 467 649 q 468 647 467 649 q 600 175 475 619 q 649 -1 644 17 l 649 -3 m 350 321 q 340 362 347 335 q 331 401 333 389 q 311 321 322 365 q 303 289 308 311 q 294 254 297 267 l 367 254 q 358 288 364 265 q 350 321 353 310 z "},"B":{"ha":700,"x_min":68,"x_max":658,"o":"m 657 208 q 657 172 657 200 q 657 142 657 150 q 596 26 657 74 q 371 -33 521 -33 l 94 -33 q 76 -26 83 -33 q 69 -10 69 -19 q 69 329 69 6 q 69 642 69 599 q 77 660 69 653 q 94 667 85 667 l 372 667 q 567 615 492 667 q 642 500 642 564 q 642 463 642 478 q 642 446 642 447 q 568 329 642 374 q 657 208 657 282 m 360 399 q 408 408 388 399 q 428 436 428 418 q 428 458 428 442 q 428 494 428 481 q 408 516 428 507 q 360 525 389 525 l 285 525 l 285 399 q 307 399 292 399 q 360 399 349 399 m 285 256 l 285 108 l 360 108 q 420 117 397 108 q 443 142 443 126 l 443 208 q 360 256 443 256 q 318 256 354 256 q 285 256 289 256 z "},"C":{"ha":711,"x_min":68,"x_max":642,"o":"m 640 229 q 640 186 640 219 q 642 126 642 135 q 574 13 642 63 q 354 -44 493 -44 q 261 -35 308 -44 q 169 -6 214 -25 q 97 50 125 14 q 69 132 69 86 q 71 394 69 197 q 71 504 71 497 q 160 632 71 582 q 351 678 239 678 q 490 658 425 678 q 597 599 554 639 q 640 504 640 558 q 640 451 640 488 q 640 439 640 446 q 640 428 640 432 q 640 421 640 424 q 633 404 640 411 q 617 397 626 397 q 560 397 589 397 q 453 397 476 397 q 436 404 443 397 q 429 421 429 411 q 429 463 429 433 q 429 480 429 469 q 429 497 429 490 q 429 506 429 503 q 424 513 429 508 q 411 523 419 518 q 390 531 403 528 q 363 535 376 535 q 308 524 331 535 q 285 501 285 514 l 285 133 q 307 110 285 121 q 357 100 329 100 q 407 110 385 100 q 429 135 429 119 l 429 228 q 433 240 429 235 q 442 249 436 246 q 454 253 447 253 q 544 253 478 253 q 615 253 614 253 q 633 246 626 253 q 640 229 640 239 z "},"Ç":{"ha":711,"x_min":68,"x_max":642,"o":"m 640 229 q 640 186 640 219 q 642 126 642 135 q 574 13 642 63 q 354 -44 493 -44 q 261 -35 308 -44 q 169 -6 214 -25 q 97 50 125 14 q 69 132 69 86 q 71 394 69 197 q 71 504 71 497 q 160 632 71 582 q 351 678 239 678 q 490 658 425 678 q 597 599 554 639 q 640 504 640 558 q 640 451 640 488 q 640 439 640 446 q 640 428 640 432 q 640 421 640 424 q 633 404 640 411 q 617 397 626 397 q 560 397 589 397 q 453 397 476 397 q 436 404 443 397 q 429 421 429 411 q 429 463 429 433 q 429 480 429 469 q 429 497 429 490 q 429 506 429 503 q 424 513 429 508 q 411 523 419 518 q 390 531 403 528 q 363 535 376 535 q 308 524 331 535 q 285 501 285 514 l 285 133 q 307 110 285 121 q 357 100 329 100 q 407 110 385 100 q 429 135 429 119 l 429 228 q 433 240 429 235 q 442 249 436 246 q 454 253 447 253 q 544 253 478 253 q 615 253 614 253 q 633 246 626 253 q 640 229 640 239 z "},"D":{"ha":699,"x_min":69,"x_max":643,"o":"m 642 500 q 642 274 642 461 q 642 144 642 153 q 642 142 642 143 q 627 83 642 113 q 582 27 613 54 q 497 -17 551 0 q 371 -33 442 -33 l 94 -33 q 76 -26 83 -33 q 69 -10 69 -19 q 69 329 69 46 q 69 642 69 636 q 77 660 69 653 q 94 667 85 667 l 372 667 q 567 615 492 667 q 642 500 642 564 m 285 525 l 285 108 l 360 108 q 408 118 388 108 q 428 147 428 128 q 428 293 428 154 q 428 493 428 471 q 408 516 428 507 q 360 525 389 525 l 285 525 z "},"E":{"ha":661,"x_min":69,"x_max":593,"o":"m 568 108 q 585 101 578 108 q 592 83 592 94 l 592 -10 q 585 -26 592 -19 q 568 -33 578 -33 l 94 -33 q 78 -26 85 -33 q 71 -10 71 -19 q 71 43 71 -4 q 70 176 71 90 q 69 329 69 261 q 69 642 69 611 q 76 660 69 653 q 94 667 83 667 l 567 667 q 585 660 578 667 q 592 642 592 653 q 592 610 592 633 q 592 550 592 551 q 588 538 592 543 q 579 528 585 532 q 568 525 574 525 q 544 525 565 525 q 489 525 524 525 q 425 525 454 525 q 356 525 408 525 q 285 525 304 525 l 285 393 l 504 393 q 522 385 515 393 q 529 368 529 378 l 529 275 q 522 257 529 264 q 504 250 515 250 l 285 250 l 285 108 q 438 108 394 108 q 568 108 567 108 z "},"È":{"ha":661,"x_min":69,"x_max":593,"o":"m 568 108 q 585 101 578 108 q 592 83 592 94 l 592 -10 q 585 -26 592 -19 q 568 -33 578 -33 l 94 -33 q 78 -26 85 -33 q 71 -10 71 -19 q 71 43 71 -4 q 70 176 71 90 q 69 329 69 261 q 69 642 69 611 q 76 660 69 653 q 94 667 83 667 l 567 667 q 585 660 578 667 q 592 642 592 653 q 592 610 592 633 q 592 550 592 551 q 588 538 592 543 q 579 528 585 532 q 568 525 574 525 q 544 525 565 525 q 489 525 524 525 q 425 525 454 525 q 356 525 408 525 q 285 525 304 525 l 285 393 l 504 393 q 522 385 515 393 q 529 368 529 378 l 529 275 q 522 257 529 264 q 504 250 515 250 l 285 250 l 285 108 q 438 108 394 108 q 568 108 567 108 z "},"É":{"ha":661,"x_min":69,"x_max":593,"o":"m 568 108 q 585 101 578 108 q 592 83 592 94 l 592 -10 q 585 -26 592 -19 q 568 -33 578 -33 l 94 -33 q 78 -26 85 -33 q 71 -10 71 -19 q 71 43 71 -4 q 70 176 71 90 q 69 329 69 261 q 69 642 69 611 q 76 660 69 653 q 94 667 83 667 l 567 667 q 585 660 578 667 q 592 642 592 653 q 592 610 592 633 q 592 550 592 551 q 588 538 592 543 q 579 528 585 532 q 568 525 574 525 q 544 525 565 525 q 489 525 524 525 q 425 525 454 525 q 356 525 408 525 q 285 525 304 525 l 285 393 l 504 393 q 522 385 515 393 q 529 368 529 378 l 529 275 q 522 257 529 264 q 504 250 515 250 l 285 250 l 285 108 q 438 108 394 108 q 568 108 567 108 z "},"Ê":{"ha":661,"x_min":69,"x_max":593,"o":"m 568 108 q 585 101 578 108 q 592 83 592 94 l 592 -10 q 585 -26 592 -19 q 568 -33 578 -33 l 94 -33 q 78 -26 85 -33 q 71 -10 71 -19 q 71 43 71 -4 q 70 176 71 90 q 69 329 69 261 q 69 642 69 611 q 76 660 69 653 q 94 667 83 667 l 567 667 q 585 660 578 667 q 592 642 592 653 q 592 610 592 633 q 592 550 592 551 q 588 538 592 543 q 579 528 585 532 q 568 525 574 525 q 544 525 565 525 q 489 525 524 525 q 425 525 454 525 q 356 525 408 525 q 285 525 304 525 l 285 393 l 504 393 q 522 385 515 393 q 529 368 529 378 l 529 275 q 522 257 529 264 q 504 250 515 250 l 285 250 l 285 108 q 438 108 394 108 q 568 108 567 108 z "},"Ë":{"ha":661,"x_min":69,"x_max":593,"o":"m 568 108 q 585 101 578 108 q 592 83 592 94 l 592 -10 q 585 -26 592 -19 q 568 -33 578 -33 l 94 -33 q 78 -26 85 -33 q 71 -10 71 -19 q 71 43 71 -4 q 70 176 71 90 q 69 329 69 261 q 69 642 69 611 q 76 660 69 653 q 94 667 83 667 l 567 667 q 585 660 578 667 q 592 642 592 653 q 592 610 592 633 q 592 550 592 551 q 588 538 592 543 q 579 528 585 532 q 568 525 574 525 q 544 525 565 525 q 489 525 524 525 q 425 525 454 525 q 356 525 408 525 q 285 525 304 525 l 285 393 l 504 393 q 522 385 515 393 q 529 368 529 378 l 529 275 q 522 257 529 264 q 504 250 515 250 l 285 250 l 285 108 q 438 108 394 108 q 568 108 567 108 z "},"F":{"ha":625,"x_min":69,"x_max":583,"o":"m 582 642 q 582 610 582 642 q 583 550 583 551 q 576 532 583 539 q 558 525 568 525 q 535 525 556 525 q 482 525 515 525 q 419 525 449 525 q 372 525 400 525 q 321 525 343 525 q 285 525 299 525 l 285 383 l 496 383 q 513 376 506 383 q 519 358 519 369 l 519 265 q 517 253 519 258 q 508 244 514 247 q 496 240 501 240 l 285 240 l 285 -10 q 278 -26 285 -19 q 260 -33 271 -33 l 94 -33 q 78 -26 85 -33 q 71 -10 71 -19 q 71 43 71 -4 q 70 176 71 90 q 69 329 69 261 q 69 642 69 611 q 76 660 69 653 q 94 667 83 667 l 557 667 q 575 660 568 667 q 582 642 582 653 z "},"G":{"ha":696,"x_min":56,"x_max":640,"o":"m 338 678 q 555 628 471 678 q 639 500 639 578 l 639 439 q 632 422 639 429 q 615 415 625 415 q 557 415 610 415 q 449 418 454 418 q 432 425 439 418 q 425 442 425 432 q 424 472 425 443 q 424 503 424 501 q 416 515 424 508 q 390 528 408 522 q 349 535 371 535 q 294 524 317 535 q 271 501 271 514 l 271 133 q 281 117 271 125 q 308 105 292 110 q 343 100 325 100 q 372 101 358 100 q 398 107 386 103 q 417 119 410 111 q 425 135 425 126 q 425 149 425 139 q 425 175 425 160 q 425 201 425 190 q 425 231 425 222 q 349 231 367 231 q 331 238 338 231 q 324 254 324 244 q 324 304 324 261 q 324 331 324 315 q 324 347 324 347 q 331 365 324 357 q 349 372 338 372 q 569 372 429 372 l 615 372 q 632 365 625 372 q 639 347 639 357 l 639 126 q 560 10 639 64 q 340 -44 482 -44 q 249 -35 296 -44 q 157 -4 201 -25 q 84 53 113 17 q 56 136 56 90 q 57 396 56 226 q 57 504 57 497 q 146 632 57 582 q 338 678 225 678 z "},"H":{"ha":718,"x_min":69,"x_max":650,"o":"m 625 667 q 642 660 635 667 q 649 642 649 653 l 649 -10 q 645 -22 649 -17 q 636 -31 642 -28 q 625 -33 631 -33 l 458 -33 q 442 -26 449 -33 q 435 -10 435 -19 q 435 250 435 11 l 283 250 q 283 -10 283 51 q 281 -21 283 -15 q 273 -30 278 -26 q 261 -33 268 -33 q 260 -33 260 -33 l 94 -33 q 76 -26 83 -33 q 69 -10 69 -19 l 69 642 q 76 660 69 653 q 94 667 83 667 l 260 667 q 276 660 269 667 q 283 642 283 653 q 283 606 283 639 q 283 510 283 574 q 283 393 283 446 l 433 393 q 433 467 433 428 q 433 534 433 506 q 433 588 433 563 q 433 626 433 613 q 433 642 433 640 q 440 660 433 653 q 458 667 447 667 l 625 667 z "},"I":{"ha":354,"x_min":69,"x_max":286,"o":"m 260 667 q 278 660 271 667 q 285 642 285 653 l 285 -10 q 278 -26 285 -19 q 260 -33 271 -33 l 94 -33 q 78 -26 85 -33 q 71 -10 71 -19 q 69 329 71 6 q 69 642 69 636 q 76 660 69 653 q 94 667 83 667 l 260 667 z "},"Ì":{"ha":354,"x_min":69,"x_max":286,"o":"m 260 667 q 278 660 271 667 q 285 642 285 653 l 285 -10 q 278 -26 285 -19 q 260 -33 271 -33 l 94 -33 q 78 -26 85 -33 q 71 -10 71 -19 q 69 329 71 6 q 69 642 69 636 q 76 660 69 653 q 94 667 83 667 l 260 667 z "},"Í":{"ha":354,"x_min":69,"x_max":286,"o":"m 260 667 q 278 660 271 667 q 285 642 285 653 l 285 -10 q 278 -26 285 -19 q 260 -33 271 -33 l 94 -33 q 78 -26 85 -33 q 71 -10 71 -19 q 69 329 71 6 q 69 642 69 636 q 76 660 69 653 q 94 667 83 667 l 260 667 z "},"Î":{"ha":354,"x_min":69,"x_max":286,"o":"m 260 667 q 278 660 271 667 q 285 642 285 653 l 285 -10 q 278 -26 285 -19 q 260 -33 271 -33 l 94 -33 q 78 -26 85 -33 q 71 -10 71 -19 q 69 329 71 6 q 69 642 69 636 q 76 660 69 653 q 94 667 83 667 l 260 667 z "},"Ï":{"ha":354,"x_min":69,"x_max":286,"o":"m 260 667 q 278 660 271 667 q 285 642 285 653 l 285 -10 q 278 -26 285 -19 q 260 -33 271 -33 l 94 -33 q 78 -26 85 -33 q 71 -10 71 -19 q 69 329 71 6 q 69 642 69 636 q 76 660 69 653 q 94 667 83 667 l 260 667 z "},"J":{"ha":524,"x_min":39,"x_max":454,"o":"m 429 667 q 447 660 439 667 q 454 642 454 653 l 454 136 q 396 19 454 64 q 164 -43 317 -43 q 61 -33 103 -43 q 45 -22 50 -31 q 42 -4 40 -14 q 53 39 44 6 q 64 83 61 75 l 64 85 q 64 86 64 85 q 65 89 65 89 q 67 92 65 90 q 67 94 67 93 q 69 94 68 94 q 72 99 71 97 q 73 99 72 99 q 75 100 74 100 q 78 101 78 101 q 79 103 78 101 q 86 104 82 103 q 88 104 86 104 q 90 103 89 104 q 92 103 92 103 q 169 99 128 96 q 229 117 211 101 q 239 139 239 125 q 239 600 239 319 q 239 620 239 610 q 239 636 239 631 q 239 642 239 642 q 246 660 239 653 q 263 667 253 667 l 429 667 z "},"K":{"ha":740,"x_min":68,"x_max":699,"o":"m 697 -3 q 698 -5 697 -4 q 699 -7 699 -6 q 699 -10 699 -8 q 699 -12 699 -11 q 697 -15 699 -12 q 697 -18 697 -17 q 692 -25 696 -22 q 690 -28 692 -26 q 686 -31 688 -29 q 684 -31 685 -31 q 682 -32 683 -32 l 682 -32 q 681 -33 681 -33 q 679 -33 681 -33 q 678 -33 678 -33 q 676 -33 676 -33 q 674 -33 675 -33 l 496 -33 q 493 -33 494 -33 q 490 -33 492 -33 q 488 -32 488 -32 q 485 -32 486 -32 q 482 -30 483 -31 q 479 -28 481 -29 q 478 -26 479 -26 q 475 -22 476 -25 q 475 -21 475 -22 q 463 -3 472 -18 q 319 219 388 117 q 285 179 301 197 l 285 -10 q 278 -26 285 -19 q 261 -33 271 -33 l 94 -33 q 76 -26 83 -33 q 69 -10 69 -19 l 69 643 q 76 660 69 653 q 94 667 83 667 l 261 667 q 278 660 271 667 q 285 643 285 653 l 285 444 q 447 640 358 529 q 463 658 460 656 q 464 660 463 658 q 467 661 465 661 q 467 663 467 663 q 469 664 468 664 q 471 665 469 664 q 473 665 472 665 q 474 665 474 665 q 481 667 478 667 l 658 667 q 660 667 660 667 q 663 667 661 667 q 665 666 664 667 q 665 665 665 665 q 667 665 667 665 l 668 664 q 671 664 669 664 q 675 661 672 663 q 676 659 675 660 q 677 658 676 658 q 678 656 678 657 q 682 650 681 653 q 682 647 682 649 q 682 646 682 646 q 682 643 682 644 q 682 640 682 642 q 682 638 682 639 q 682 636 682 638 q 681 633 681 635 q 681 633 681 633 q 679 631 681 632 q 678 629 679 631 q 676 626 678 628 q 663 610 674 624 q 456 364 576 501 q 675 33 543 233 q 693 6 690 11 l 694 4 q 696 1 696 3 q 696 1 696 1 q 697 0 696 0 l 697 -1 q 697 -3 697 -3 z "},"L":{"ha":628,"x_min":69,"x_max":586,"o":"m 561 108 q 578 101 571 108 q 585 83 585 94 l 585 -10 q 582 -22 585 -17 q 574 -31 579 -28 q 561 -33 568 -33 l 94 -33 q 76 -26 83 -33 q 69 -10 69 -19 l 69 643 q 76 660 69 653 q 94 667 83 667 l 261 667 q 278 660 271 667 q 285 643 285 653 l 285 108 q 435 108 394 108 q 561 108 560 108 z "},"M":{"ha":947,"x_min":69,"x_max":878,"o":"m 853 667 q 870 660 863 667 q 878 643 878 653 l 878 -10 q 870 -26 878 -19 q 853 -33 863 -33 l 686 -33 q 669 -26 676 -33 q 663 -10 663 -19 l 663 289 q 571 28 633 208 q 554 -18 554 -17 q 531 -33 549 -33 l 413 -33 q 390 -18 396 -33 q 313 206 388 -11 q 285 288 301 242 l 285 -10 q 278 -26 285 -19 q 261 -33 271 -33 l 94 -33 q 76 -26 83 -33 q 69 -10 69 -19 l 69 643 q 76 660 69 653 q 94 667 83 667 l 261 667 q 289 667 268 667 q 304 667 294 667 q 321 667 314 667 q 331 667 328 667 q 353 651 347 667 q 432 426 356 644 q 474 303 453 365 q 515 428 490 350 q 592 654 589 649 q 614 667 599 667 l 853 667 z "},"N":{"ha":747,"x_min":69,"x_max":678,"o":"m 653 667 q 670 660 663 667 q 678 643 678 653 l 678 -10 q 670 -26 678 -19 q 653 -33 663 -33 l 481 -33 q 458 -21 465 -33 q 354 179 446 6 q 283 314 294 292 l 283 -10 q 276 -26 283 -19 q 258 -33 268 -33 l 94 -33 q 76 -26 83 -33 q 69 -10 69 -19 l 69 643 q 76 660 69 653 q 94 667 83 667 l 258 667 q 267 667 263 667 q 279 667 275 667 q 301 651 296 667 q 419 408 306 640 q 467 311 435 375 q 467 494 467 372 q 468 643 468 643 q 475 660 468 653 q 493 667 482 667 l 653 667 z "},"Ñ":{"ha":747,"x_min":69,"x_max":678,"o":"m 653 667 q 670 660 663 667 q 678 643 678 653 l 678 -10 q 670 -26 678 -19 q 653 -33 663 -33 l 481 -33 q 458 -21 465 -33 q 354 179 446 6 q 283 314 294 292 l 283 -10 q 276 -26 283 -19 q 258 -33 268 -33 l 94 -33 q 76 -26 83 -33 q 69 -10 69 -19 l 69 643 q 76 660 69 653 q 94 667 83 667 l 258 667 q 267 667 263 667 q 279 667 275 667 q 301 651 296 667 q 419 408 306 640 q 467 311 435 375 q 467 494 467 372 q 468 643 468 643 q 475 660 468 653 q 493 667 482 667 l 653 667 z "},"O":{"ha":696,"x_min":56,"x_max":640,"o":"m 338 678 q 494 655 425 678 q 601 592 563 632 q 639 500 639 551 l 639 126 q 560 10 639 64 q 340 -44 482 -44 q 249 -35 296 -44 q 157 -4 201 -25 q 84 53 113 17 q 56 136 56 90 q 57 396 56 201 q 57 504 57 476 q 146 632 57 582 q 338 678 225 678 m 424 503 q 416 515 424 508 q 390 528 408 522 q 349 535 371 535 q 294 524 317 535 q 271 501 271 514 l 271 133 q 293 110 271 121 q 343 100 315 100 q 363 101 353 100 q 381 103 372 101 q 398 107 390 104 q 412 114 406 110 q 422 124 418 118 q 425 135 425 129 q 425 201 425 147 q 425 224 425 213 q 425 244 425 236 q 425 254 425 251 q 425 376 425 261 q 424 503 424 494 z "},"Ò":{"ha":696,"x_min":56,"x_max":640,"o":"m 338 678 q 494 655 425 678 q 601 592 563 632 q 639 500 639 551 l 639 126 q 560 10 639 64 q 340 -44 482 -44 q 249 -35 296 -44 q 157 -4 201 -25 q 84 53 113 17 q 56 136 56 90 q 57 396 56 201 q 57 504 57 476 q 146 632 57 582 q 338 678 225 678 m 424 503 q 416 515 424 508 q 390 528 408 522 q 349 535 371 535 q 294 524 317 535 q 271 501 271 514 l 271 133 q 293 110 271 121 q 343 100 315 100 q 363 101 353 100 q 381 103 372 101 q 398 107 390 104 q 412 114 406 110 q 422 124 418 118 q 425 135 425 129 q 425 201 425 147 q 425 224 425 213 q 425 244 425 236 q 425 254 425 251 q 425 376 425 261 q 424 503 424 494 z "},"Ó":{"ha":696,"x_min":56,"x_max":640,"o":"m 338 678 q 494 655 425 678 q 601 592 563 632 q 639 500 639 551 l 639 126 q 560 10 639 64 q 340 -44 482 -44 q 249 -35 296 -44 q 157 -4 201 -25 q 84 53 113 17 q 56 136 56 90 q 57 396 56 201 q 57 504 57 476 q 146 632 57 582 q 338 678 225 678 m 424 503 q 416 515 424 508 q 390 528 408 522 q 349 535 371 535 q 294 524 317 535 q 271 501 271 514 l 271 133 q 293 110 271 121 q 343 100 315 100 q 363 101 353 100 q 381 103 372 101 q 398 107 390 104 q 412 114 406 110 q 422 124 418 118 q 425 135 425 129 q 425 201 425 147 q 425 224 425 213 q 425 244 425 236 q 425 254 425 251 q 425 376 425 261 q 424 503 424 494 z "},"Ô":{"ha":696,"x_min":56,"x_max":640,"o":"m 338 678 q 494 655 425 678 q 601 592 563 632 q 639 500 639 551 l 639 126 q 560 10 639 64 q 340 -44 482 -44 q 249 -35 296 -44 q 157 -4 201 -25 q 84 53 113 17 q 56 136 56 90 q 57 396 56 201 q 57 504 57 476 q 146 632 57 582 q 338 678 225 678 m 424 503 q 416 515 424 508 q 390 528 408 522 q 349 535 371 535 q 294 524 317 535 q 271 501 271 514 l 271 133 q 293 110 271 121 q 343 100 315 100 q 363 101 353 100 q 381 103 372 101 q 398 107 390 104 q 412 114 406 110 q 422 124 418 118 q 425 135 425 129 q 425 201 425 147 q 425 224 425 213 q 425 244 425 236 q 425 254 425 251 q 425 376 425 261 q 424 503 424 494 z "},"Õ":{"ha":696,"x_min":56,"x_max":640,"o":"m 338 678 q 494 655 425 678 q 601 592 563 632 q 639 500 639 551 l 639 126 q 560 10 639 64 q 340 -44 482 -44 q 249 -35 296 -44 q 157 -4 201 -25 q 84 53 113 17 q 56 136 56 90 q 57 396 56 201 q 57 504 57 476 q 146 632 57 582 q 338 678 225 678 m 424 503 q 416 515 424 508 q 390 528 408 522 q 349 535 371 535 q 294 524 317 535 q 271 501 271 514 l 271 133 q 293 110 271 121 q 343 100 315 100 q 363 101 353 100 q 381 103 372 101 q 398 107 390 104 q 412 114 406 110 q 422 124 418 118 q 425 135 425 129 q 425 201 425 147 q 425 224 425 213 q 425 244 425 236 q 425 254 425 251 q 425 376 425 261 q 424 503 424 494 z "},"Ö":{"ha":696,"x_min":56,"x_max":640,"o":"m 338 678 q 494 655 425 678 q 601 592 563 632 q 639 500 639 551 l 639 126 q 560 10 639 64 q 340 -44 482 -44 q 249 -35 296 -44 q 157 -4 201 -25 q 84 53 113 17 q 56 136 56 90 q 57 396 56 201 q 57 504 57 476 q 146 632 57 582 q 338 678 225 678 m 424 503 q 416 515 424 508 q 390 528 408 522 q 349 535 371 535 q 294 524 317 535 q 271 501 271 514 l 271 133 q 293 110 271 121 q 343 100 315 100 q 363 101 353 100 q 381 103 372 101 q 398 107 390 104 q 412 114 406 110 q 422 124 418 118 q 425 135 425 129 q 425 201 425 147 q 425 224 425 213 q 425 244 425 236 q 425 254 425 251 q 425 376 425 261 q 424 503 424 494 z "},"Ø":{"ha":696,"x_min":56,"x_max":640,"o":"m 338 678 q 494 655 425 678 q 601 592 563 632 q 639 500 639 551 l 639 126 q 560 10 639 64 q 340 -44 482 -44 q 249 -35 296 -44 q 157 -4 201 -25 q 84 53 113 17 q 56 136 56 90 q 57 396 56 201 q 57 504 57 476 q 146 632 57 582 q 338 678 225 678 m 424 503 q 416 515 424 508 q 390 528 408 522 q 349 535 371 535 q 294 524 317 535 q 271 501 271 514 l 271 133 q 293 110 271 121 q 343 100 315 100 q 363 101 353 100 q 381 103 372 101 q 398 107 390 104 q 412 114 406 110 q 422 124 418 118 q 425 135 425 129 q 425 201 425 147 q 425 224 425 213 q 425 244 425 236 q 425 254 425 251 q 425 376 425 261 q 424 503 424 494 z "},"P":{"ha":656,"x_min":69,"x_max":642,"o":"m 372 667 q 497 649 442 667 q 581 604 551 632 q 626 548 611 576 q 642 492 642 519 l 642 407 q 567 281 642 329 q 394 232 492 232 l 285 232 l 285 -10 q 278 -26 285 -19 q 260 -33 271 -33 l 94 -33 q 76 -26 83 -33 q 69 -10 69 -19 q 69 329 69 46 q 69 642 69 636 q 77 660 69 653 q 94 667 85 667 l 372 667 m 285 525 l 285 371 l 354 371 q 428 422 428 371 q 428 451 428 428 q 428 493 428 479 q 408 516 428 507 q 360 525 389 525 l 285 525 z "},"Q":{"ha":700,"x_min":56,"x_max":672,"o":"m 647 72 q 664 65 657 72 q 671 49 671 58 l 671 -47 q 664 -65 671 -57 q 647 -72 657 -72 q 478 -28 526 -72 q 340 -44 417 -44 q 249 -35 296 -44 q 157 -4 201 -25 q 84 53 113 17 q 56 136 56 90 q 57 396 56 214 q 57 504 57 486 q 146 632 57 582 q 338 678 225 678 q 555 628 471 678 q 639 500 639 578 l 639 126 q 626 74 639 100 q 647 72 636 72 m 424 503 q 416 515 424 508 q 390 528 408 522 q 349 535 371 535 q 294 524 317 535 q 271 501 271 514 l 271 133 q 293 110 271 121 q 343 100 315 100 q 401 108 376 100 q 425 135 425 117 q 425 201 425 161 q 425 254 425 238 q 425 376 425 261 q 424 503 424 494 z "},"R":{"ha":694,"x_min":69,"x_max":667,"o":"m 665 -6 q 666 -7 665 -6 q 667 -10 667 -8 q 665 -12 667 -11 q 665 -15 665 -14 q 665 -18 665 -17 q 657 -29 663 -24 q 656 -29 656 -29 q 653 -31 654 -31 q 650 -32 651 -32 q 647 -33 649 -32 q 644 -33 646 -33 q 642 -33 643 -33 l 469 -33 q 467 -33 468 -33 q 465 -33 465 -33 q 463 -33 464 -33 q 461 -32 461 -33 q 458 -31 460 -32 q 457 -31 457 -31 q 454 -28 456 -29 q 453 -28 453 -28 q 451 -26 453 -28 q 450 -24 450 -25 q 449 -22 449 -24 q 447 -21 447 -21 q 331 235 429 14 q 328 235 331 235 q 325 235 326 235 q 285 235 325 235 l 285 -10 q 278 -26 285 -19 q 260 -33 271 -33 l 94 -33 q 76 -26 83 -33 q 69 -10 69 -19 q 69 43 69 -6 q 69 176 69 92 q 69 329 69 260 q 69 642 69 636 q 77 660 69 653 q 94 667 85 667 l 372 667 q 497 649 442 667 q 581 604 551 632 q 626 548 611 576 q 642 492 642 519 l 642 407 q 554 279 642 329 q 536 268 544 274 q 663 3 638 51 q 664 1 663 3 q 665 -1 664 1 q 665 -3 665 -3 l 665 -4 q 665 -6 665 -4 m 285 525 l 285 376 q 304 376 292 376 q 354 376 353 376 q 428 422 428 376 q 428 451 428 428 q 428 493 428 479 q 408 516 428 507 q 360 525 389 525 l 285 525 z "},"S":{"ha":644,"x_min":28,"x_max":617,"o":"m 392 378 q 457 339 435 353 q 515 299 479 325 q 568 253 550 274 q 601 205 586 233 q 615 147 615 176 q 586 60 615 99 q 512 -1 557 21 q 419 -33 467 -22 q 326 -43 372 -43 q 105 10 182 -43 q 28 165 28 64 q 31 176 28 171 q 39 185 33 182 q 50 189 44 189 q 133 194 75 190 q 210 200 188 197 q 228 192 221 200 q 236 174 236 185 q 251 118 233 135 q 310 100 268 100 q 403 140 403 100 q 392 167 403 153 q 358 197 382 181 q 317 223 335 213 q 267 251 300 233 q 203 288 225 275 q 144 328 181 301 q 88 377 107 354 q 53 433 68 400 q 38 501 38 467 q 119 631 38 583 q 308 678 201 678 q 490 643 421 678 q 592 474 592 592 q 585 457 592 464 q 569 450 578 450 q 410 440 501 446 q 391 447 399 440 q 383 465 383 454 q 370 518 383 501 q 311 535 357 535 q 247 496 247 535 q 259 469 247 483 q 296 438 271 456 q 339 408 321 419 q 392 378 357 397 z "},"T":{"ha":610,"x_min":14,"x_max":596,"o":"m 571 667 q 588 660 581 667 q 594 642 594 653 q 594 608 594 642 q 594 586 594 600 q 594 563 594 572 q 594 550 594 553 q 588 532 594 539 q 569 525 581 525 q 554 525 567 525 q 522 525 542 525 q 485 525 501 525 q 414 525 431 525 l 414 -10 q 406 -26 414 -19 q 389 -33 399 -33 l 224 -33 q 207 -26 214 -33 q 200 -10 200 -19 q 199 329 200 6 q 199 525 199 333 q 165 525 183 525 q 39 525 53 525 q 21 533 28 525 q 14 550 14 540 l 14 642 q 21 660 14 653 q 39 667 28 667 l 571 667 z "},"U":{"ha":707,"x_min":69,"x_max":639,"o":"m 636 642 q 638 325 636 633 q 638 266 638 297 q 638 213 638 235 q 638 171 638 190 q 638 141 638 151 q 638 129 638 131 q 622 73 638 101 q 575 17 607 44 q 485 -26 543 -10 q 354 -43 428 -43 q 263 -33 310 -43 q 171 -2 215 -22 q 98 55 126 18 q 69 139 69 92 q 71 489 69 201 q 71 642 71 640 q 78 660 71 653 q 94 667 85 667 l 263 667 q 279 660 272 667 q 286 642 286 653 l 286 133 q 308 109 286 119 q 357 99 329 99 q 426 135 426 99 l 426 642 q 433 660 426 653 q 450 667 440 667 l 611 667 q 628 660 621 667 q 636 642 636 653 z "},"Ù":{"ha":707,"x_min":69,"x_max":639,"o":"m 636 642 q 638 325 636 633 q 638 266 638 297 q 638 213 638 235 q 638 171 638 190 q 638 141 638 151 q 638 129 638 131 q 622 73 638 101 q 575 17 607 44 q 485 -26 543 -10 q 354 -43 428 -43 q 263 -33 310 -43 q 171 -2 215 -22 q 98 55 126 18 q 69 139 69 92 q 71 489 69 201 q 71 642 71 640 q 78 660 71 653 q 94 667 85 667 l 263 667 q 279 660 272 667 q 286 642 286 653 l 286 133 q 308 109 286 119 q 357 99 329 99 q 426 135 426 99 l 426 642 q 433 660 426 653 q 450 667 440 667 l 611 667 q 628 660 621 667 q 636 642 636 653 z "},"Ú":{"ha":707,"x_min":69,"x_max":639,"o":"m 636 642 q 638 325 636 633 q 638 266 638 297 q 638 213 638 235 q 638 171 638 190 q 638 141 638 151 q 638 129 638 131 q 622 73 638 101 q 575 17 607 44 q 485 -26 543 -10 q 354 -43 428 -43 q 263 -33 310 -43 q 171 -2 215 -22 q 98 55 126 18 q 69 139 69 92 q 71 489 69 201 q 71 642 71 640 q 78 660 71 653 q 94 667 85 667 l 263 667 q 279 660 272 667 q 286 642 286 653 l 286 133 q 308 109 286 119 q 357 99 329 99 q 426 135 426 99 l 426 642 q 433 660 426 653 q 450 667 440 667 l 611 667 q 628 660 621 667 q 636 642 636 653 z "},"Û":{"ha":707,"x_min":69,"x_max":639,"o":"m 636 642 q 638 325 636 633 q 638 266 638 297 q 638 213 638 235 q 638 171 638 190 q 638 141 638 151 q 638 129 638 131 q 622 73 638 101 q 575 17 607 44 q 485 -26 543 -10 q 354 -43 428 -43 q 263 -33 310 -43 q 171 -2 215 -22 q 98 55 126 18 q 69 139 69 92 q 71 489 69 201 q 71 642 71 640 q 78 660 71 653 q 94 667 85 667 l 263 667 q 279 660 272 667 q 286 642 286 653 l 286 133 q 308 109 286 119 q 357 99 329 99 q 426 135 426 99 l 426 642 q 433 660 426 653 q 450 667 440 667 l 611 667 q 628 660 621 667 q 636 642 636 653 z "},"Ü":{"ha":707,"x_min":69,"x_max":639,"o":"m 636 642 q 638 325 636 633 q 638 266 638 297 q 638 213 638 235 q 638 171 638 190 q 638 141 638 151 q 638 129 638 131 q 622 73 638 101 q 575 17 607 44 q 485 -26 543 -10 q 354 -43 428 -43 q 263 -33 310 -43 q 171 -2 215 -22 q 98 55 126 18 q 69 139 69 92 q 71 489 69 201 q 71 642 71 640 q 78 660 71 653 q 94 667 85 667 l 263 667 q 279 660 272 667 q 286 642 286 653 l 286 133 q 308 109 286 119 q 357 99 329 99 q 426 135 426 99 l 426 642 q 433 660 426 653 q 450 667 440 667 l 611 667 q 628 660 621 667 q 636 642 636 653 z "},"V":{"ha":693,"x_min":25,"x_max":668,"o":"m 640 667 q 660 657 653 667 q 664 636 667 647 q 482 -18 507 53 q 460 -33 476 -33 l 235 -33 q 211 -14 215 -33 q 97 392 207 4 q 28 636 32 622 q 33 658 25 649 q 53 667 40 667 l 224 667 q 247 649 242 667 q 350 235 274 554 q 435 590 375 342 q 450 647 446 633 q 474 667 454 667 l 640 667 z "},"W":{"ha":999,"x_min":39,"x_max":960,"o":"m 932 667 q 951 658 943 667 q 956 636 958 649 q 922 504 954 628 q 796 -14 801 19 q 771 -33 792 -33 l 589 -33 q 564 -15 569 -33 q 499 301 558 11 q 459 106 478 201 q 435 -14 440 11 q 411 -33 432 -33 l 228 -33 q 204 -15 208 -33 q 138 251 200 4 q 42 638 46 618 q 47 658 40 649 q 67 667 54 667 l 232 667 q 256 647 251 667 q 325 329 272 582 q 376 567 343 414 q 394 647 392 636 q 418 667 399 667 l 451 667 l 586 667 q 610 647 606 667 q 678 333 631 558 q 728 568 693 410 q 746 647 742 632 q 769 667 749 667 l 932 667 z "},"X":{"ha":758,"x_min":38,"x_max":721,"o":"m 506 325 q 713 4 613 163 q 714 -21 721 -8 q 692 -33 707 -33 l 514 -33 q 493 -22 500 -33 l 492 -22 q 372 171 406 119 q 359 148 367 161 q 341 117 351 135 q 325 89 331 100 q 260 -22 278 10 q 239 -33 253 -33 l 67 -33 q 44 -21 51 -33 q 46 4 38 -8 q 92 75 50 11 q 256 328 222 278 q 133 517 232 363 q 60 631 61 626 q 58 654 51 642 q 81 667 65 667 q 231 667 81 667 l 258 667 q 279 656 272 667 q 389 481 293 635 q 395 492 392 486 q 402 506 399 499 q 408 517 406 513 q 494 660 483 649 q 511 667 501 667 q 540 667 511 667 q 686 667 674 667 q 706 653 700 665 q 706 629 713 640 q 649 542 694 614 q 506 325 524 351 z "},"Y":{"ha":689,"x_min":10,"x_max":679,"o":"m 650 667 q 672 654 665 667 q 671 629 679 642 q 453 260 585 489 q 453 179 453 215 q 451 -10 451 42 q 444 -26 451 -19 q 428 -33 438 -33 l 261 -33 q 243 -26 250 -33 q 236 -10 236 -19 q 236 38 236 0 q 238 257 239 221 q 17 631 201 314 q 17 655 10 643 q 39 667 24 667 l 215 667 q 238 654 231 667 q 344 447 249 633 q 357 469 350 457 q 456 654 444 635 q 476 667 463 667 q 495 667 482 667 q 530 667 508 667 q 567 667 551 667 q 650 667 628 667 z "},"Ý":{"ha":689,"x_min":10,"x_max":679,"o":"m 650 667 q 672 654 665 667 q 671 629 679 642 q 453 260 585 489 q 453 179 453 215 q 451 -10 451 42 q 444 -26 451 -19 q 428 -33 438 -33 l 261 -33 q 243 -26 250 -33 q 236 -10 236 -19 q 236 38 236 0 q 238 257 239 221 q 17 631 201 314 q 17 655 10 643 q 39 667 24 667 l 215 667 q 238 654 231 667 q 344 447 249 633 q 357 469 350 457 q 456 654 444 635 q 476 667 463 667 q 495 667 482 667 q 530 667 508 667 q 567 667 551 667 q 650 667 628 667 z "},"Ÿ":{"ha":689,"x_min":10,"x_max":679,"o":"m 650 667 q 672 654 665 667 q 671 629 679 642 q 453 260 585 489 q 453 179 453 215 q 451 -10 451 42 q 444 -26 451 -19 q 428 -33 438 -33 l 261 -33 q 243 -26 250 -33 q 236 -10 236 -19 q 236 38 236 0 q 238 257 239 221 q 17 631 201 314 q 17 655 10 643 q 39 667 24 667 l 215 667 q 238 654 231 667 q 344 447 249 633 q 357 469 350 457 q 456 654 444 635 q 476 667 463 667 q 495 667 482 667 q 530 667 508 667 q 567 667 551 667 q 650 667 628 667 z "},"Z":{"ha":688,"x_min":69,"x_max":619,"o":"m 613 542 l 611 542 q 325 108 589 513 q 507 108 458 108 q 594 108 578 108 q 611 101 604 108 q 618 83 618 93 q 618 24 618 65 q 618 -10 618 10 q 611 -26 618 -19 q 593 -33 604 -33 l 94 -33 q 76 -26 83 -33 q 69 -10 69 -19 q 69 15 69 -1 q 71 75 71 50 q 75 88 71 82 q 283 404 85 106 q 363 525 342 493 l 94 525 q 82 528 88 525 q 73 538 76 532 q 69 550 69 543 q 69 586 69 554 q 69 642 69 618 q 76 660 69 653 q 94 667 83 667 l 594 667 q 611 660 604 667 q 618 642 618 653 l 618 558 q 613 543 618 550 l 613 542 z "},"[":{"ha":354,"x_min":69,"x_max":286,"o":"m 196 585 q 196 186 196 467 l 196 78 q 244 79 219 78 q 272 79 263 79 q 283 69 283 79 q 283 38 283 60 q 283 -6 283 -1 q 272 -15 283 -15 q 188 -14 251 -15 q 82 -14 104 -14 q 69 -4 69 -14 l 69 668 q 82 678 69 678 l 272 678 q 285 668 285 678 l 285 594 q 272 585 285 585 q 243 585 261 585 q 225 585 243 585 q 196 585 207 585 z "},"\\":{"ha":506,"x_min":68,"x_max":438,"o":"m 435 -12 q 434 -21 438 -17 q 424 -25 431 -25 q 369 -25 386 -25 l 332 -25 q 319 -18 322 -25 q 81 647 308 13 l 69 675 q 72 684 68 681 q 81 688 75 688 q 139 689 104 688 q 175 689 153 689 q 186 682 183 689 q 239 533 199 644 q 435 -12 428 8 z "},"]":{"ha":354,"x_min":69,"x_max":286,"o":"m 274 678 q 285 668 285 678 l 285 -4 q 274 -14 285 -14 q 167 -14 250 -14 q 82 -15 103 -15 q 71 -6 71 -15 q 71 38 71 18 q 71 69 71 60 q 82 79 71 79 q 110 79 92 79 q 158 78 135 78 l 158 186 q 158 410 158 260 q 158 585 158 560 q 132 585 149 585 q 111 585 115 585 q 82 585 93 585 q 69 594 69 585 l 69 668 q 82 678 69 678 l 274 678 z "},"^":{"ha":569,"x_min":67,"x_max":503,"o":"m 499 336 q 498 327 501 332 q 489 322 494 322 l 392 322 q 381 328 383 322 q 328 435 375 338 q 285 524 297 500 q 208 367 265 486 q 190 329 193 335 q 179 322 188 322 q 133 322 160 322 q 82 324 92 324 q 72 328 75 324 q 71 336 68 332 q 119 432 75 346 q 232 651 224 628 q 243 658 235 658 q 258 658 247 658 q 276 658 269 658 q 326 658 307 658 q 338 653 333 658 q 355 616 339 647 q 393 541 371 585 q 438 453 415 497 q 477 376 460 410 q 499 336 494 343 z "},"`":{"ha":331,"x_min":67,"x_max":263,"o":"m 260 507 q 259 498 263 503 q 249 493 256 493 q 246 493 249 493 q 240 493 243 493 q 232 493 236 493 q 183 493 192 493 q 180 493 182 493 q 176 493 178 493 q 167 499 171 493 q 125 563 165 500 q 71 643 74 639 q 71 653 68 649 q 82 658 74 658 l 188 658 q 199 653 194 658 q 226 586 200 649 q 260 507 258 511 z "},"a":{"ha":686,"x_min":14,"x_max":651,"o":"m 649 -3 q 649 -3 649 -3 q 650 -4 650 -3 q 650 -14 651 -10 q 650 -15 650 -15 q 649 -17 649 -17 q 649 -18 649 -17 q 647 -21 647 -19 q 646 -22 647 -22 l 646 -24 q 644 -25 644 -25 q 643 -26 644 -26 q 643 -28 643 -26 q 640 -29 642 -29 q 639 -30 639 -29 q 638 -31 639 -31 q 636 -32 636 -32 q 634 -32 635 -32 q 632 -33 633 -32 q 631 -33 632 -33 q 628 -33 629 -33 q 626 -33 628 -33 l 457 -33 q 453 -33 454 -33 q 450 -33 451 -33 q 449 -33 450 -33 q 447 -32 447 -32 q 443 -31 444 -31 q 442 -29 443 -29 q 438 -25 439 -28 q 436 -24 438 -25 q 435 -21 436 -22 q 434 -19 435 -19 q 433 -18 433 -19 q 433 -17 433 -18 q 433 -15 433 -15 l 432 -14 q 401 111 432 -10 l 260 111 q 238 22 246 53 q 228 -15 229 -10 l 228 -17 q 228 -18 228 -17 q 226 -19 226 -19 q 219 -29 224 -25 q 218 -31 218 -29 q 215 -31 217 -31 q 213 -32 214 -32 q 210 -33 211 -33 q 208 -33 210 -33 q 204 -33 207 -33 l 39 -33 q 36 -33 38 -33 q 34 -33 35 -33 q 33 -33 33 -33 q 32 -33 32 -33 q 30 -32 31 -32 q 28 -32 29 -32 q 26 -31 26 -31 q 25 -29 25 -31 q 22 -28 24 -28 q 21 -26 21 -26 q 19 -25 19 -26 q 17 -22 18 -24 q 17 -21 17 -21 q 15 -17 15 -19 q 15 -15 15 -17 q 14 -14 14 -15 q 14 -10 14 -11 q 14 -7 14 -8 q 14 -4 14 -6 q 15 -3 15 -3 q 154 494 18 8 q 174 569 164 532 q 191 627 185 607 q 197 649 197 647 l 197 650 q 198 652 197 651 q 199 654 199 653 q 200 656 200 656 l 200 657 q 203 660 201 658 q 205 662 204 661 q 207 663 206 663 q 210 664 208 664 q 210 665 210 664 q 211 665 211 665 q 214 665 213 665 q 215 667 215 667 q 218 667 217 667 q 219 667 219 667 l 221 667 l 222 667 q 299 667 261 667 l 314 667 q 339 667 322 667 q 364 667 356 667 q 401 667 381 667 q 431 667 421 667 q 443 667 442 667 q 446 667 444 667 q 449 667 447 667 q 450 665 450 665 q 451 665 450 665 q 460 660 457 664 q 461 660 461 660 l 463 658 q 464 656 463 657 q 465 653 465 654 q 467 651 465 651 q 467 650 467 650 q 467 649 467 649 q 468 647 467 649 q 600 175 475 619 q 649 -1 644 17 l 649 -3 m 350 321 q 340 362 347 335 q 331 401 333 389 q 311 321 322 365 q 303 289 308 311 q 294 254 297 267 l 367 254 q 358 288 364 265 q 350 321 353 310 z "},"à":{"ha":686,"x_min":14,"x_max":651,"o":"m 649 -3 q 649 -3 649 -3 q 650 -4 650 -3 q 650 -14 651 -10 q 650 -15 650 -15 q 649 -17 649 -17 q 649 -18 649 -17 q 647 -21 647 -19 q 646 -22 647 -22 l 646 -24 q 644 -25 644 -25 q 643 -26 644 -26 q 643 -28 643 -26 q 640 -29 642 -29 q 639 -30 639 -29 q 638 -31 639 -31 q 636 -32 636 -32 q 634 -32 635 -32 q 632 -33 633 -32 q 631 -33 632 -33 q 628 -33 629 -33 q 626 -33 628 -33 l 457 -33 q 453 -33 454 -33 q 450 -33 451 -33 q 449 -33 450 -33 q 447 -32 447 -32 q 443 -31 444 -31 q 442 -29 443 -29 q 438 -25 439 -28 q 436 -24 438 -25 q 435 -21 436 -22 q 434 -19 435 -19 q 433 -18 433 -19 q 433 -17 433 -18 q 433 -15 433 -15 l 432 -14 q 401 111 432 -10 l 260 111 q 238 22 246 53 q 228 -15 229 -10 l 228 -17 q 228 -18 228 -17 q 226 -19 226 -19 q 219 -29 224 -25 q 218 -31 218 -29 q 215 -31 217 -31 q 213 -32 214 -32 q 210 -33 211 -33 q 208 -33 210 -33 q 204 -33 207 -33 l 39 -33 q 36 -33 38 -33 q 34 -33 35 -33 q 33 -33 33 -33 q 32 -33 32 -33 q 30 -32 31 -32 q 28 -32 29 -32 q 26 -31 26 -31 q 25 -29 25 -31 q 22 -28 24 -28 q 21 -26 21 -26 q 19 -25 19 -26 q 17 -22 18 -24 q 17 -21 17 -21 q 15 -17 15 -19 q 15 -15 15 -17 q 14 -14 14 -15 q 14 -10 14 -11 q 14 -7 14 -8 q 14 -4 14 -6 q 15 -3 15 -3 q 154 494 18 8 q 174 569 164 532 q 191 627 185 607 q 197 649 197 647 l 197 650 q 198 652 197 651 q 199 654 199 653 q 200 656 200 656 l 200 657 q 203 660 201 658 q 205 662 204 661 q 207 663 206 663 q 210 664 208 664 q 210 665 210 664 q 211 665 211 665 q 214 665 213 665 q 215 667 215 667 q 218 667 217 667 q 219 667 219 667 l 221 667 l 222 667 q 299 667 261 667 l 314 667 q 339 667 322 667 q 364 667 356 667 q 401 667 381 667 q 431 667 421 667 q 443 667 442 667 q 446 667 444 667 q 449 667 447 667 q 450 665 450 665 q 451 665 450 665 q 460 660 457 664 q 461 660 461 660 l 463 658 q 464 656 463 657 q 465 653 465 654 q 467 651 465 651 q 467 650 467 650 q 467 649 467 649 q 468 647 467 649 q 600 175 475 619 q 649 -1 644 17 l 649 -3 m 350 321 q 340 362 347 335 q 331 401 333 389 q 311 321 322 365 q 303 289 308 311 q 294 254 297 267 l 367 254 q 358 288 364 265 q 350 321 353 310 z "},"á":{"ha":686,"x_min":14,"x_max":651,"o":"m 649 -3 q 649 -3 649 -3 q 650 -4 650 -3 q 650 -14 651 -10 q 650 -15 650 -15 q 649 -17 649 -17 q 649 -18 649 -17 q 647 -21 647 -19 q 646 -22 647 -22 l 646 -24 q 644 -25 644 -25 q 643 -26 644 -26 q 643 -28 643 -26 q 640 -29 642 -29 q 639 -30 639 -29 q 638 -31 639 -31 q 636 -32 636 -32 q 634 -32 635 -32 q 632 -33 633 -32 q 631 -33 632 -33 q 628 -33 629 -33 q 626 -33 628 -33 l 457 -33 q 453 -33 454 -33 q 450 -33 451 -33 q 449 -33 450 -33 q 447 -32 447 -32 q 443 -31 444 -31 q 442 -29 443 -29 q 438 -25 439 -28 q 436 -24 438 -25 q 435 -21 436 -22 q 434 -19 435 -19 q 433 -18 433 -19 q 433 -17 433 -18 q 433 -15 433 -15 l 432 -14 q 401 111 432 -10 l 260 111 q 238 22 246 53 q 228 -15 229 -10 l 228 -17 q 228 -18 228 -17 q 226 -19 226 -19 q 219 -29 224 -25 q 218 -31 218 -29 q 215 -31 217 -31 q 213 -32 214 -32 q 210 -33 211 -33 q 208 -33 210 -33 q 204 -33 207 -33 l 39 -33 q 36 -33 38 -33 q 34 -33 35 -33 q 33 -33 33 -33 q 32 -33 32 -33 q 30 -32 31 -32 q 28 -32 29 -32 q 26 -31 26 -31 q 25 -29 25 -31 q 22 -28 24 -28 q 21 -26 21 -26 q 19 -25 19 -26 q 17 -22 18 -24 q 17 -21 17 -21 q 15 -17 15 -19 q 15 -15 15 -17 q 14 -14 14 -15 q 14 -10 14 -11 q 14 -7 14 -8 q 14 -4 14 -6 q 15 -3 15 -3 q 154 494 18 8 q 174 569 164 532 q 191 627 185 607 q 197 649 197 647 l 197 650 q 198 652 197 651 q 199 654 199 653 q 200 656 200 656 l 200 657 q 203 660 201 658 q 205 662 204 661 q 207 663 206 663 q 210 664 208 664 q 210 665 210 664 q 211 665 211 665 q 214 665 213 665 q 215 667 215 667 q 218 667 217 667 q 219 667 219 667 l 221 667 l 222 667 q 299 667 261 667 l 314 667 q 339 667 322 667 q 364 667 356 667 q 401 667 381 667 q 431 667 421 667 q 443 667 442 667 q 446 667 444 667 q 449 667 447 667 q 450 665 450 665 q 451 665 450 665 q 460 660 457 664 q 461 660 461 660 l 463 658 q 464 656 463 657 q 465 653 465 654 q 467 651 465 651 q 467 650 467 650 q 467 649 467 649 q 468 647 467 649 q 600 175 475 619 q 649 -1 644 17 l 649 -3 m 350 321 q 340 362 347 335 q 331 401 333 389 q 311 321 322 365 q 303 289 308 311 q 294 254 297 267 l 367 254 q 358 288 364 265 q 350 321 353 310 z "},"â":{"ha":686,"x_min":14,"x_max":651,"o":"m 649 -3 q 649 -3 649 -3 q 650 -4 650 -3 q 650 -14 651 -10 q 650 -15 650 -15 q 649 -17 649 -17 q 649 -18 649 -17 q 647 -21 647 -19 q 646 -22 647 -22 l 646 -24 q 644 -25 644 -25 q 643 -26 644 -26 q 643 -28 643 -26 q 640 -29 642 -29 q 639 -30 639 -29 q 638 -31 639 -31 q 636 -32 636 -32 q 634 -32 635 -32 q 632 -33 633 -32 q 631 -33 632 -33 q 628 -33 629 -33 q 626 -33 628 -33 l 457 -33 q 453 -33 454 -33 q 450 -33 451 -33 q 449 -33 450 -33 q 447 -32 447 -32 q 443 -31 444 -31 q 442 -29 443 -29 q 438 -25 439 -28 q 436 -24 438 -25 q 435 -21 436 -22 q 434 -19 435 -19 q 433 -18 433 -19 q 433 -17 433 -18 q 433 -15 433 -15 l 432 -14 q 401 111 432 -10 l 260 111 q 238 22 246 53 q 228 -15 229 -10 l 228 -17 q 228 -18 228 -17 q 226 -19 226 -19 q 219 -29 224 -25 q 218 -31 218 -29 q 215 -31 217 -31 q 213 -32 214 -32 q 210 -33 211 -33 q 208 -33 210 -33 q 204 -33 207 -33 l 39 -33 q 36 -33 38 -33 q 34 -33 35 -33 q 33 -33 33 -33 q 32 -33 32 -33 q 30 -32 31 -32 q 28 -32 29 -32 q 26 -31 26 -31 q 25 -29 25 -31 q 22 -28 24 -28 q 21 -26 21 -26 q 19 -25 19 -26 q 17 -22 18 -24 q 17 -21 17 -21 q 15 -17 15 -19 q 15 -15 15 -17 q 14 -14 14 -15 q 14 -10 14 -11 q 14 -7 14 -8 q 14 -4 14 -6 q 15 -3 15 -3 q 154 494 18 8 q 174 569 164 532 q 191 627 185 607 q 197 649 197 647 l 197 650 q 198 652 197 651 q 199 654 199 653 q 200 656 200 656 l 200 657 q 203 660 201 658 q 205 662 204 661 q 207 663 206 663 q 210 664 208 664 q 210 665 210 664 q 211 665 211 665 q 214 665 213 665 q 215 667 215 667 q 218 667 217 667 q 219 667 219 667 l 221 667 l 222 667 q 299 667 261 667 l 314 667 q 339 667 322 667 q 364 667 356 667 q 401 667 381 667 q 431 667 421 667 q 443 667 442 667 q 446 667 444 667 q 449 667 447 667 q 450 665 450 665 q 451 665 450 665 q 460 660 457 664 q 461 660 461 660 l 463 658 q 464 656 463 657 q 465 653 465 654 q 467 651 465 651 q 467 650 467 650 q 467 649 467 649 q 468 647 467 649 q 600 175 475 619 q 649 -1 644 17 l 649 -3 m 350 321 q 340 362 347 335 q 331 401 333 389 q 311 321 322 365 q 303 289 308 311 q 294 254 297 267 l 367 254 q 358 288 364 265 q 350 321 353 310 z "},"ã":{"ha":686,"x_min":14,"x_max":651,"o":"m 649 -3 q 649 -3 649 -3 q 650 -4 650 -3 q 650 -14 651 -10 q 650 -15 650 -15 q 649 -17 649 -17 q 649 -18 649 -17 q 647 -21 647 -19 q 646 -22 647 -22 l 646 -24 q 644 -25 644 -25 q 643 -26 644 -26 q 643 -28 643 -26 q 640 -29 642 -29 q 639 -30 639 -29 q 638 -31 639 -31 q 636 -32 636 -32 q 634 -32 635 -32 q 632 -33 633 -32 q 631 -33 632 -33 q 628 -33 629 -33 q 626 -33 628 -33 l 457 -33 q 453 -33 454 -33 q 450 -33 451 -33 q 449 -33 450 -33 q 447 -32 447 -32 q 443 -31 444 -31 q 442 -29 443 -29 q 438 -25 439 -28 q 436 -24 438 -25 q 435 -21 436 -22 q 434 -19 435 -19 q 433 -18 433 -19 q 433 -17 433 -18 q 433 -15 433 -15 l 432 -14 q 401 111 432 -10 l 260 111 q 238 22 246 53 q 228 -15 229 -10 l 228 -17 q 228 -18 228 -17 q 226 -19 226 -19 q 219 -29 224 -25 q 218 -31 218 -29 q 215 -31 217 -31 q 213 -32 214 -32 q 210 -33 211 -33 q 208 -33 210 -33 q 204 -33 207 -33 l 39 -33 q 36 -33 38 -33 q 34 -33 35 -33 q 33 -33 33 -33 q 32 -33 32 -33 q 30 -32 31 -32 q 28 -32 29 -32 q 26 -31 26 -31 q 25 -29 25 -31 q 22 -28 24 -28 q 21 -26 21 -26 q 19 -25 19 -26 q 17 -22 18 -24 q 17 -21 17 -21 q 15 -17 15 -19 q 15 -15 15 -17 q 14 -14 14 -15 q 14 -10 14 -11 q 14 -7 14 -8 q 14 -4 14 -6 q 15 -3 15 -3 q 154 494 18 8 q 174 569 164 532 q 191 627 185 607 q 197 649 197 647 l 197 650 q 198 652 197 651 q 199 654 199 653 q 200 656 200 656 l 200 657 q 203 660 201 658 q 205 662 204 661 q 207 663 206 663 q 210 664 208 664 q 210 665 210 664 q 211 665 211 665 q 214 665 213 665 q 215 667 215 667 q 218 667 217 667 q 219 667 219 667 l 221 667 l 222 667 q 299 667 261 667 l 314 667 q 339 667 322 667 q 364 667 356 667 q 401 667 381 667 q 431 667 421 667 q 443 667 442 667 q 446 667 444 667 q 449 667 447 667 q 450 665 450 665 q 451 665 450 665 q 460 660 457 664 q 461 660 461 660 l 463 658 q 464 656 463 657 q 465 653 465 654 q 467 651 465 651 q 467 650 467 650 q 467 649 467 649 q 468 647 467 649 q 600 175 475 619 q 649 -1 644 17 l 649 -3 m 350 321 q 340 362 347 335 q 331 401 333 389 q 311 321 322 365 q 303 289 308 311 q 294 254 297 267 l 367 254 q 358 288 364 265 q 350 321 353 310 z "},"ä":{"ha":686,"x_min":14,"x_max":651,"o":"m 649 -3 q 649 -3 649 -3 q 650 -4 650 -3 q 650 -14 651 -10 q 650 -15 650 -15 q 649 -17 649 -17 q 649 -18 649 -17 q 647 -21 647 -19 q 646 -22 647 -22 l 646 -24 q 644 -25 644 -25 q 643 -26 644 -26 q 643 -28 643 -26 q 640 -29 642 -29 q 639 -30 639 -29 q 638 -31 639 -31 q 636 -32 636 -32 q 634 -32 635 -32 q 632 -33 633 -32 q 631 -33 632 -33 q 628 -33 629 -33 q 626 -33 628 -33 l 457 -33 q 453 -33 454 -33 q 450 -33 451 -33 q 449 -33 450 -33 q 447 -32 447 -32 q 443 -31 444 -31 q 442 -29 443 -29 q 438 -25 439 -28 q 436 -24 438 -25 q 435 -21 436 -22 q 434 -19 435 -19 q 433 -18 433 -19 q 433 -17 433 -18 q 433 -15 433 -15 l 432 -14 q 401 111 432 -10 l 260 111 q 238 22 246 53 q 228 -15 229 -10 l 228 -17 q 228 -18 228 -17 q 226 -19 226 -19 q 219 -29 224 -25 q 218 -31 218 -29 q 215 -31 217 -31 q 213 -32 214 -32 q 210 -33 211 -33 q 208 -33 210 -33 q 204 -33 207 -33 l 39 -33 q 36 -33 38 -33 q 34 -33 35 -33 q 33 -33 33 -33 q 32 -33 32 -33 q 30 -32 31 -32 q 28 -32 29 -32 q 26 -31 26 -31 q 25 -29 25 -31 q 22 -28 24 -28 q 21 -26 21 -26 q 19 -25 19 -26 q 17 -22 18 -24 q 17 -21 17 -21 q 15 -17 15 -19 q 15 -15 15 -17 q 14 -14 14 -15 q 14 -10 14 -11 q 14 -7 14 -8 q 14 -4 14 -6 q 15 -3 15 -3 q 154 494 18 8 q 174 569 164 532 q 191 627 185 607 q 197 649 197 647 l 197 650 q 198 652 197 651 q 199 654 199 653 q 200 656 200 656 l 200 657 q 203 660 201 658 q 205 662 204 661 q 207 663 206 663 q 210 664 208 664 q 210 665 210 664 q 211 665 211 665 q 214 665 213 665 q 215 667 215 667 q 218 667 217 667 q 219 667 219 667 l 221 667 l 222 667 q 299 667 261 667 l 314 667 q 339 667 322 667 q 364 667 356 667 q 401 667 381 667 q 431 667 421 667 q 443 667 442 667 q 446 667 444 667 q 449 667 447 667 q 450 665 450 665 q 451 665 450 665 q 460 660 457 664 q 461 660 461 660 l 463 658 q 464 656 463 657 q 465 653 465 654 q 467 651 465 651 q 467 650 467 650 q 467 649 467 649 q 468 647 467 649 q 600 175 475 619 q 649 -1 644 17 l 649 -3 m 350 321 q 340 362 347 335 q 331 401 333 389 q 311 321 322 365 q 303 289 308 311 q 294 254 297 267 l 367 254 q 358 288 364 265 q 350 321 353 310 z "},"å":{"ha":686,"x_min":14,"x_max":651,"o":"m 649 -3 q 649 -3 649 -3 q 650 -4 650 -3 q 650 -14 651 -10 q 650 -15 650 -15 q 649 -17 649 -17 q 649 -18 649 -17 q 647 -21 647 -19 q 646 -22 647 -22 l 646 -24 q 644 -25 644 -25 q 643 -26 644 -26 q 643 -28 643 -26 q 640 -29 642 -29 q 639 -30 639 -29 q 638 -31 639 -31 q 636 -32 636 -32 q 634 -32 635 -32 q 632 -33 633 -32 q 631 -33 632 -33 q 628 -33 629 -33 q 626 -33 628 -33 l 457 -33 q 453 -33 454 -33 q 450 -33 451 -33 q 449 -33 450 -33 q 447 -32 447 -32 q 443 -31 444 -31 q 442 -29 443 -29 q 438 -25 439 -28 q 436 -24 438 -25 q 435 -21 436 -22 q 434 -19 435 -19 q 433 -18 433 -19 q 433 -17 433 -18 q 433 -15 433 -15 l 432 -14 q 401 111 432 -10 l 260 111 q 238 22 246 53 q 228 -15 229 -10 l 228 -17 q 228 -18 228 -17 q 226 -19 226 -19 q 219 -29 224 -25 q 218 -31 218 -29 q 215 -31 217 -31 q 213 -32 214 -32 q 210 -33 211 -33 q 208 -33 210 -33 q 204 -33 207 -33 l 39 -33 q 36 -33 38 -33 q 34 -33 35 -33 q 33 -33 33 -33 q 32 -33 32 -33 q 30 -32 31 -32 q 28 -32 29 -32 q 26 -31 26 -31 q 25 -29 25 -31 q 22 -28 24 -28 q 21 -26 21 -26 q 19 -25 19 -26 q 17 -22 18 -24 q 17 -21 17 -21 q 15 -17 15 -19 q 15 -15 15 -17 q 14 -14 14 -15 q 14 -10 14 -11 q 14 -7 14 -8 q 14 -4 14 -6 q 15 -3 15 -3 q 154 494 18 8 q 174 569 164 532 q 191 627 185 607 q 197 649 197 647 l 197 650 q 198 652 197 651 q 199 654 199 653 q 200 656 200 656 l 200 657 q 203 660 201 658 q 205 662 204 661 q 207 663 206 663 q 210 664 208 664 q 210 665 210 664 q 211 665 211 665 q 214 665 213 665 q 215 667 215 667 q 218 667 217 667 q 219 667 219 667 l 221 667 l 222 667 q 299 667 261 667 l 314 667 q 339 667 322 667 q 364 667 356 667 q 401 667 381 667 q 431 667 421 667 q 443 667 442 667 q 446 667 444 667 q 449 667 447 667 q 450 665 450 665 q 451 665 450 665 q 460 660 457 664 q 461 660 461 660 l 463 658 q 464 656 463 657 q 465 653 465 654 q 467 651 465 651 q 467 650 467 650 q 467 649 467 649 q 468 647 467 649 q 600 175 475 619 q 649 -1 644 17 l 649 -3 m 350 321 q 340 362 347 335 q 331 401 333 389 q 311 321 322 365 q 303 289 308 311 q 294 254 297 267 l 367 254 q 358 288 364 265 q 350 321 353 310 z "},"b":{"ha":700,"x_min":68,"x_max":658,"o":"m 657 208 q 657 172 657 200 q 657 142 657 150 q 596 26 657 74 q 371 -33 521 -33 l 94 -33 q 76 -26 83 -33 q 69 -10 69 -19 q 69 329 69 6 q 69 642 69 599 q 77 660 69 653 q 94 667 85 667 l 372 667 q 567 615 492 667 q 642 500 642 564 q 642 463 642 478 q 642 446 642 447 q 568 329 642 374 q 657 208 657 282 m 360 399 q 408 408 388 399 q 428 436 428 418 q 428 458 428 442 q 428 494 428 481 q 408 516 428 507 q 360 525 389 525 l 285 525 l 285 399 q 307 399 292 399 q 360 399 349 399 m 285 256 l 285 108 l 360 108 q 420 117 397 108 q 443 142 443 126 l 443 208 q 360 256 443 256 q 318 256 354 256 q 285 256 289 256 z "},"c":{"ha":711,"x_min":68,"x_max":642,"o":"m 640 229 q 640 186 640 219 q 642 126 642 135 q 574 13 642 63 q 354 -44 493 -44 q 261 -35 308 -44 q 169 -6 214 -25 q 97 50 125 14 q 69 132 69 86 q 71 394 69 197 q 71 504 71 497 q 160 632 71 582 q 351 678 239 678 q 490 658 425 678 q 597 599 554 639 q 640 504 640 558 q 640 451 640 488 q 640 439 640 446 q 640 428 640 432 q 640 421 640 424 q 633 404 640 411 q 617 397 626 397 q 560 397 589 397 q 453 397 476 397 q 436 404 443 397 q 429 421 429 411 q 429 463 429 433 q 429 480 429 469 q 429 497 429 490 q 429 506 429 503 q 424 513 429 508 q 411 523 419 518 q 390 531 403 528 q 363 535 376 535 q 308 524 331 535 q 285 501 285 514 l 285 133 q 307 110 285 121 q 357 100 329 100 q 407 110 385 100 q 429 135 429 119 l 429 228 q 433 240 429 235 q 442 249 436 246 q 454 253 447 253 q 544 253 478 253 q 615 253 614 253 q 633 246 626 253 q 640 229 640 239 z "},"ç":{"ha":711,"x_min":68,"x_max":642,"o":"m 640 229 q 640 186 640 219 q 642 126 642 135 q 574 13 642 63 q 354 -44 493 -44 q 261 -35 308 -44 q 169 -6 214 -25 q 97 50 125 14 q 69 132 69 86 q 71 394 69 197 q 71 504 71 497 q 160 632 71 582 q 351 678 239 678 q 490 658 425 678 q 597 599 554 639 q 640 504 640 558 q 640 451 640 488 q 640 439 640 446 q 640 428 640 432 q 640 421 640 424 q 633 404 640 411 q 617 397 626 397 q 560 397 589 397 q 453 397 476 397 q 436 404 443 397 q 429 421 429 411 q 429 463 429 433 q 429 480 429 469 q 429 497 429 490 q 429 506 429 503 q 424 513 429 508 q 411 523 419 518 q 390 531 403 528 q 363 535 376 535 q 308 524 331 535 q 285 501 285 514 l 285 133 q 307 110 285 121 q 357 100 329 100 q 407 110 385 100 q 429 135 429 119 l 429 228 q 433 240 429 235 q 442 249 436 246 q 454 253 447 253 q 544 253 478 253 q 615 253 614 253 q 633 246 626 253 q 640 229 640 239 z "},"d":{"ha":699,"x_min":69,"x_max":643,"o":"m 642 500 q 642 274 642 461 q 642 144 642 153 q 642 142 642 143 q 627 83 642 113 q 582 27 613 54 q 497 -17 551 0 q 371 -33 442 -33 l 94 -33 q 76 -26 83 -33 q 69 -10 69 -19 q 69 329 69 46 q 69 642 69 636 q 77 660 69 653 q 94 667 85 667 l 372 667 q 567 615 492 667 q 642 500 642 564 m 285 525 l 285 108 l 360 108 q 408 118 388 108 q 428 147 428 128 q 428 293 428 154 q 428 493 428 471 q 408 516 428 507 q 360 525 389 525 l 285 525 z "},"e":{"ha":661,"x_min":69,"x_max":593,"o":"m 568 108 q 585 101 578 108 q 592 83 592 94 l 592 -10 q 585 -26 592 -19 q 568 -33 578 -33 l 94 -33 q 78 -26 85 -33 q 71 -10 71 -19 q 71 43 71 -4 q 70 176 71 90 q 69 329 69 261 q 69 642 69 611 q 76 660 69 653 q 94 667 83 667 l 567 667 q 585 660 578 667 q 592 642 592 653 q 592 610 592 633 q 592 550 592 551 q 588 538 592 543 q 579 528 585 532 q 568 525 574 525 q 544 525 565 525 q 489 525 524 525 q 425 525 454 525 q 356 525 408 525 q 285 525 304 525 l 285 393 l 504 393 q 522 385 515 393 q 529 368 529 378 l 529 275 q 522 257 529 264 q 504 250 515 250 l 285 250 l 285 108 q 438 108 394 108 q 568 108 567 108 z "},"è":{"ha":661,"x_min":69,"x_max":593,"o":"m 568 108 q 585 101 578 108 q 592 83 592 94 l 592 -10 q 585 -26 592 -19 q 568 -33 578 -33 l 94 -33 q 78 -26 85 -33 q 71 -10 71 -19 q 71 43 71 -4 q 70 176 71 90 q 69 329 69 261 q 69 642 69 611 q 76 660 69 653 q 94 667 83 667 l 567 667 q 585 660 578 667 q 592 642 592 653 q 592 610 592 633 q 592 550 592 551 q 588 538 592 543 q 579 528 585 532 q 568 525 574 525 q 544 525 565 525 q 489 525 524 525 q 425 525 454 525 q 356 525 408 525 q 285 525 304 525 l 285 393 l 504 393 q 522 385 515 393 q 529 368 529 378 l 529 275 q 522 257 529 264 q 504 250 515 250 l 285 250 l 285 108 q 438 108 394 108 q 568 108 567 108 z "},"é":{"ha":661,"x_min":69,"x_max":593,"o":"m 568 108 q 585 101 578 108 q 592 83 592 94 l 592 -10 q 585 -26 592 -19 q 568 -33 578 -33 l 94 -33 q 78 -26 85 -33 q 71 -10 71 -19 q 71 43 71 -4 q 70 176 71 90 q 69 329 69 261 q 69 642 69 611 q 76 660 69 653 q 94 667 83 667 l 567 667 q 585 660 578 667 q 592 642 592 653 q 592 610 592 633 q 592 550 592 551 q 588 538 592 543 q 579 528 585 532 q 568 525 574 525 q 544 525 565 525 q 489 525 524 525 q 425 525 454 525 q 356 525 408 525 q 285 525 304 525 l 285 393 l 504 393 q 522 385 515 393 q 529 368 529 378 l 529 275 q 522 257 529 264 q 504 250 515 250 l 285 250 l 285 108 q 438 108 394 108 q 568 108 567 108 z "},"ê":{"ha":661,"x_min":69,"x_max":593,"o":"m 568 108 q 585 101 578 108 q 592 83 592 94 l 592 -10 q 585 -26 592 -19 q 568 -33 578 -33 l 94 -33 q 78 -26 85 -33 q 71 -10 71 -19 q 71 43 71 -4 q 70 176 71 90 q 69 329 69 261 q 69 642 69 611 q 76 660 69 653 q 94 667 83 667 l 567 667 q 585 660 578 667 q 592 642 592 653 q 592 610 592 633 q 592 550 592 551 q 588 538 592 543 q 579 528 585 532 q 568 525 574 525 q 544 525 565 525 q 489 525 524 525 q 425 525 454 525 q 356 525 408 525 q 285 525 304 525 l 285 393 l 504 393 q 522 385 515 393 q 529 368 529 378 l 529 275 q 522 257 529 264 q 504 250 515 250 l 285 250 l 285 108 q 438 108 394 108 q 568 108 567 108 z "},"ë":{"ha":661,"x_min":69,"x_max":593,"o":"m 568 108 q 585 101 578 108 q 592 83 592 94 l 592 -10 q 585 -26 592 -19 q 568 -33 578 -33 l 94 -33 q 78 -26 85 -33 q 71 -10 71 -19 q 71 43 71 -4 q 70 176 71 90 q 69 329 69 261 q 69 642 69 611 q 76 660 69 653 q 94 667 83 667 l 567 667 q 585 660 578 667 q 592 642 592 653 q 592 610 592 633 q 592 550 592 551 q 588 538 592 543 q 579 528 585 532 q 568 525 574 525 q 544 525 565 525 q 489 525 524 525 q 425 525 454 525 q 356 525 408 525 q 285 525 304 525 l 285 393 l 504 393 q 522 385 515 393 q 529 368 529 378 l 529 275 q 522 257 529 264 q 504 250 515 250 l 285 250 l 285 108 q 438 108 394 108 q 568 108 567 108 z "},"f":{"ha":625,"x_min":69,"x_max":583,"o":"m 582 642 q 582 610 582 642 q 583 550 583 551 q 576 532 583 539 q 558 525 568 525 q 535 525 556 525 q 482 525 515 525 q 419 525 449 525 q 372 525 400 525 q 321 525 343 525 q 285 525 299 525 l 285 383 l 496 383 q 513 376 506 383 q 519 358 519 369 l 519 265 q 517 253 519 258 q 508 244 514 247 q 496 240 501 240 l 285 240 l 285 -10 q 278 -26 285 -19 q 260 -33 271 -33 l 94 -33 q 78 -26 85 -33 q 71 -10 71 -19 q 71 43 71 -4 q 70 176 71 90 q 69 329 69 261 q 69 642 69 611 q 76 660 69 653 q 94 667 83 667 l 557 667 q 575 660 568 667 q 582 642 582 653 z "},"g":{"ha":696,"x_min":56,"x_max":640,"o":"m 338 678 q 555 628 471 678 q 639 500 639 578 l 639 439 q 632 422 639 429 q 615 415 625 415 q 557 415 610 415 q 449 418 454 418 q 432 425 439 418 q 425 442 425 432 q 424 472 425 443 q 424 503 424 501 q 416 515 424 508 q 390 528 408 522 q 349 535 371 535 q 294 524 317 535 q 271 501 271 514 l 271 133 q 281 117 271 125 q 308 105 292 110 q 343 100 325 100 q 372 101 358 100 q 398 107 386 103 q 417 119 410 111 q 425 135 425 126 q 425 149 425 139 q 425 175 425 160 q 425 201 425 190 q 425 231 425 222 q 349 231 367 231 q 331 238 338 231 q 324 254 324 244 q 324 304 324 261 q 324 331 324 315 q 324 347 324 347 q 331 365 324 357 q 349 372 338 372 q 569 372 429 372 l 615 372 q 632 365 625 372 q 639 347 639 357 l 639 126 q 560 10 639 64 q 340 -44 482 -44 q 249 -35 296 -44 q 157 -4 201 -25 q 84 53 113 17 q 56 136 56 90 q 57 396 56 226 q 57 504 57 497 q 146 632 57 582 q 338 678 225 678 z "},"h":{"ha":718,"x_min":69,"x_max":650,"o":"m 625 667 q 642 660 635 667 q 649 642 649 653 l 649 -10 q 645 -22 649 -17 q 636 -31 642 -28 q 625 -33 631 -33 l 458 -33 q 442 -26 449 -33 q 435 -10 435 -19 q 435 250 435 11 l 283 250 q 283 -10 283 51 q 281 -21 283 -15 q 273 -30 278 -26 q 261 -33 268 -33 q 260 -33 260 -33 l 94 -33 q 76 -26 83 -33 q 69 -10 69 -19 l 69 642 q 76 660 69 653 q 94 667 83 667 l 260 667 q 276 660 269 667 q 283 642 283 653 q 283 606 283 639 q 283 510 283 574 q 283 393 283 446 l 433 393 q 433 467 433 428 q 433 534 433 506 q 433 588 433 563 q 433 626 433 613 q 433 642 433 640 q 440 660 433 653 q 458 667 447 667 l 625 667 z "},"i":{"ha":354,"x_min":69,"x_max":286,"o":"m 260 667 q 278 660 271 667 q 285 642 285 653 l 285 -10 q 278 -26 285 -19 q 260 -33 271 -33 l 94 -33 q 78 -26 85 -33 q 71 -10 71 -19 q 69 329 71 6 q 69 642 69 636 q 76 660 69 653 q 94 667 83 667 l 260 667 z "},"ì":{"ha":354,"x_min":69,"x_max":286,"o":"m 260 667 q 278 660 271 667 q 285 642 285 653 l 285 -10 q 278 -26 285 -19 q 260 -33 271 -33 l 94 -33 q 78 -26 85 -33 q 71 -10 71 -19 q 69 329 71 6 q 69 642 69 636 q 76 660 69 653 q 94 667 83 667 l 260 667 z "},"í":{"ha":354,"x_min":69,"x_max":286,"o":"m 260 667 q 278 660 271 667 q 285 642 285 653 l 285 -10 q 278 -26 285 -19 q 260 -33 271 -33 l 94 -33 q 78 -26 85 -33 q 71 -10 71 -19 q 69 329 71 6 q 69 642 69 636 q 76 660 69 653 q 94 667 83 667 l 260 667 z "},"î":{"ha":354,"x_min":69,"x_max":286,"o":"m 260 667 q 278 660 271 667 q 285 642 285 653 l 285 -10 q 278 -26 285 -19 q 260 -33 271 -33 l 94 -33 q 78 -26 85 -33 q 71 -10 71 -19 q 69 329 71 6 q 69 642 69 636 q 76 660 69 653 q 94 667 83 667 l 260 667 z "},"ï":{"ha":354,"x_min":69,"x_max":286,"o":"m 260 667 q 278 660 271 667 q 285 642 285 653 l 285 -10 q 278 -26 285 -19 q 260 -33 271 -33 l 94 -33 q 78 -26 85 -33 q 71 -10 71 -19 q 69 329 71 6 q 69 642 69 636 q 76 660 69 653 q 94 667 83 667 l 260 667 z "},"j":{"ha":524,"x_min":39,"x_max":454,"o":"m 429 667 q 447 660 439 667 q 454 642 454 653 l 454 136 q 396 19 454 64 q 164 -43 317 -43 q 61 -33 103 -43 q 45 -22 50 -31 q 42 -4 40 -14 q 53 39 44 6 q 64 83 61 75 l 64 85 q 64 86 64 85 q 65 89 65 89 q 67 92 65 90 q 67 94 67 93 q 69 94 68 94 q 72 99 71 97 q 73 99 72 99 q 75 100 74 100 q 78 101 78 101 q 79 103 78 101 q 86 104 82 103 q 88 104 86 104 q 90 103 89 104 q 92 103 92 103 q 169 99 128 96 q 229 117 211 101 q 239 139 239 125 q 239 600 239 319 q 239 620 239 610 q 239 636 239 631 q 239 642 239 642 q 246 660 239 653 q 263 667 253 667 l 429 667 z "},"k":{"ha":740,"x_min":68,"x_max":699,"o":"m 697 -3 q 698 -5 697 -4 q 699 -7 699 -6 q 699 -10 699 -8 q 699 -12 699 -11 q 697 -15 699 -12 q 697 -18 697 -17 q 692 -25 696 -22 q 690 -28 692 -26 q 686 -31 688 -29 q 684 -31 685 -31 q 682 -32 683 -32 l 682 -32 q 681 -33 681 -33 q 679 -33 681 -33 q 678 -33 678 -33 q 676 -33 676 -33 q 674 -33 675 -33 l 496 -33 q 493 -33 494 -33 q 490 -33 492 -33 q 488 -32 488 -32 q 485 -32 486 -32 q 482 -30 483 -31 q 479 -28 481 -29 q 478 -26 479 -26 q 475 -22 476 -25 q 475 -21 475 -22 q 463 -3 472 -18 q 319 219 388 117 q 285 179 301 197 l 285 -10 q 278 -26 285 -19 q 261 -33 271 -33 l 94 -33 q 76 -26 83 -33 q 69 -10 69 -19 l 69 643 q 76 660 69 653 q 94 667 83 667 l 261 667 q 278 660 271 667 q 285 643 285 653 l 285 444 q 447 640 358 529 q 463 658 460 656 q 464 660 463 658 q 467 661 465 661 q 467 663 467 663 q 469 664 468 664 q 471 665 469 664 q 473 665 472 665 q 474 665 474 665 q 481 667 478 667 l 658 667 q 660 667 660 667 q 663 667 661 667 q 665 666 664 667 q 665 665 665 665 q 667 665 667 665 l 668 664 q 671 664 669 664 q 675 661 672 663 q 676 659 675 660 q 677 658 676 658 q 678 656 678 657 q 682 650 681 653 q 682 647 682 649 q 682 646 682 646 q 682 643 682 644 q 682 640 682 642 q 682 638 682 639 q 682 636 682 638 q 681 633 681 635 q 681 633 681 633 q 679 631 681 632 q 678 629 679 631 q 676 626 678 628 q 663 610 674 624 q 456 364 576 501 q 675 33 543 233 q 693 6 690 11 l 694 4 q 696 1 696 3 q 696 1 696 1 q 697 0 696 0 l 697 -1 q 697 -3 697 -3 z "},"l":{"ha":628,"x_min":69,"x_max":586,"o":"m 561 108 q 578 101 571 108 q 585 83 585 94 l 585 -10 q 582 -22 585 -17 q 574 -31 579 -28 q 561 -33 568 -33 l 94 -33 q 76 -26 83 -33 q 69 -10 69 -19 l 69 643 q 76 660 69 653 q 94 667 83 667 l 261 667 q 278 660 271 667 q 285 643 285 653 l 285 108 q 435 108 394 108 q 561 108 560 108 z "},"m":{"ha":947,"x_min":69,"x_max":878,"o":"m 853 667 q 870 660 863 667 q 878 643 878 653 l 878 -10 q 870 -26 878 -19 q 853 -33 863 -33 l 686 -33 q 669 -26 676 -33 q 663 -10 663 -19 l 663 289 q 571 28 633 208 q 554 -18 554 -17 q 531 -33 549 -33 l 413 -33 q 390 -18 396 -33 q 313 206 388 -11 q 285 288 301 242 l 285 -10 q 278 -26 285 -19 q 261 -33 271 -33 l 94 -33 q 76 -26 83 -33 q 69 -10 69 -19 l 69 643 q 76 660 69 653 q 94 667 83 667 l 261 667 q 289 667 268 667 q 304 667 294 667 q 321 667 314 667 q 331 667 328 667 q 353 651 347 667 q 432 426 356 644 q 474 303 453 365 q 515 428 490 350 q 592 654 589 649 q 614 667 599 667 l 853 667 z "},"n":{"ha":747,"x_min":69,"x_max":678,"o":"m 653 667 q 670 660 663 667 q 678 643 678 653 l 678 -10 q 670 -26 678 -19 q 653 -33 663 -33 l 481 -33 q 458 -21 465 -33 q 354 179 446 6 q 283 314 294 292 l 283 -10 q 276 -26 283 -19 q 258 -33 268 -33 l 94 -33 q 76 -26 83 -33 q 69 -10 69 -19 l 69 643 q 76 660 69 653 q 94 667 83 667 l 258 667 q 267 667 263 667 q 279 667 275 667 q 301 651 296 667 q 419 408 306 640 q 467 311 435 375 q 467 494 467 372 q 468 643 468 643 q 475 660 468 653 q 493 667 482 667 l 653 667 z "},"ñ":{"ha":747,"x_min":69,"x_max":678,"o":"m 653 667 q 670 660 663 667 q 678 643 678 653 l 678 -10 q 670 -26 678 -19 q 653 -33 663 -33 l 481 -33 q 458 -21 465 -33 q 354 179 446 6 q 283 314 294 292 l 283 -10 q 276 -26 283 -19 q 258 -33 268 -33 l 94 -33 q 76 -26 83 -33 q 69 -10 69 -19 l 69 643 q 76 660 69 653 q 94 667 83 667 l 258 667 q 267 667 263 667 q 279 667 275 667 q 301 651 296 667 q 419 408 306 640 q 467 311 435 375 q 467 494 467 372 q 468 643 468 643 q 475 660 468 653 q 493 667 482 667 l 653 667 z "},"o":{"ha":696,"x_min":56,"x_max":640,"o":"m 338 678 q 494 655 425 678 q 601 592 563 632 q 639 500 639 551 l 639 126 q 560 10 639 64 q 340 -44 482 -44 q 249 -35 296 -44 q 157 -4 201 -25 q 84 53 113 17 q 56 136 56 90 q 57 396 56 201 q 57 504 57 476 q 146 632 57 582 q 338 678 225 678 m 424 503 q 416 515 424 508 q 390 528 408 522 q 349 535 371 535 q 294 524 317 535 q 271 501 271 514 l 271 133 q 293 110 271 121 q 343 100 315 100 q 363 101 353 100 q 381 103 372 101 q 398 107 390 104 q 412 114 406 110 q 422 124 418 118 q 425 135 425 129 q 425 201 425 147 q 425 224 425 213 q 425 244 425 236 q 425 254 425 251 q 425 376 425 261 q 424 503 424 494 z "},"ò":{"ha":696,"x_min":56,"x_max":640,"o":"m 338 678 q 494 655 425 678 q 601 592 563 632 q 639 500 639 551 l 639 126 q 560 10 639 64 q 340 -44 482 -44 q 249 -35 296 -44 q 157 -4 201 -25 q 84 53 113 17 q 56 136 56 90 q 57 396 56 201 q 57 504 57 476 q 146 632 57 582 q 338 678 225 678 m 424 503 q 416 515 424 508 q 390 528 408 522 q 349 535 371 535 q 294 524 317 535 q 271 501 271 514 l 271 133 q 293 110 271 121 q 343 100 315 100 q 363 101 353 100 q 381 103 372 101 q 398 107 390 104 q 412 114 406 110 q 422 124 418 118 q 425 135 425 129 q 425 201 425 147 q 425 224 425 213 q 425 244 425 236 q 425 254 425 251 q 425 376 425 261 q 424 503 424 494 z "},"ó":{"ha":696,"x_min":56,"x_max":640,"o":"m 338 678 q 494 655 425 678 q 601 592 563 632 q 639 500 639 551 l 639 126 q 560 10 639 64 q 340 -44 482 -44 q 249 -35 296 -44 q 157 -4 201 -25 q 84 53 113 17 q 56 136 56 90 q 57 396 56 201 q 57 504 57 476 q 146 632 57 582 q 338 678 225 678 m 424 503 q 416 515 424 508 q 390 528 408 522 q 349 535 371 535 q 294 524 317 535 q 271 501 271 514 l 271 133 q 293 110 271 121 q 343 100 315 100 q 363 101 353 100 q 381 103 372 101 q 398 107 390 104 q 412 114 406 110 q 422 124 418 118 q 425 135 425 129 q 425 201 425 147 q 425 224 425 213 q 425 244 425 236 q 425 254 425 251 q 425 376 425 261 q 424 503 424 494 z "},"ô":{"ha":696,"x_min":56,"x_max":640,"o":"m 338 678 q 494 655 425 678 q 601 592 563 632 q 639 500 639 551 l 639 126 q 560 10 639 64 q 340 -44 482 -44 q 249 -35 296 -44 q 157 -4 201 -25 q 84 53 113 17 q 56 136 56 90 q 57 396 56 201 q 57 504 57 476 q 146 632 57 582 q 338 678 225 678 m 424 503 q 416 515 424 508 q 390 528 408 522 q 349 535 371 535 q 294 524 317 535 q 271 501 271 514 l 271 133 q 293 110 271 121 q 343 100 315 100 q 363 101 353 100 q 381 103 372 101 q 398 107 390 104 q 412 114 406 110 q 422 124 418 118 q 425 135 425 129 q 425 201 425 147 q 425 224 425 213 q 425 244 425 236 q 425 254 425 251 q 425 376 425 261 q 424 503 424 494 z "},"õ":{"ha":696,"x_min":56,"x_max":640,"o":"m 338 678 q 494 655 425 678 q 601 592 563 632 q 639 500 639 551 l 639 126 q 560 10 639 64 q 340 -44 482 -44 q 249 -35 296 -44 q 157 -4 201 -25 q 84 53 113 17 q 56 136 56 90 q 57 396 56 201 q 57 504 57 476 q 146 632 57 582 q 338 678 225 678 m 424 503 q 416 515 424 508 q 390 528 408 522 q 349 535 371 535 q 294 524 317 535 q 271 501 271 514 l 271 133 q 293 110 271 121 q 343 100 315 100 q 363 101 353 100 q 381 103 372 101 q 398 107 390 104 q 412 114 406 110 q 422 124 418 118 q 425 135 425 129 q 425 201 425 147 q 425 224 425 213 q 425 244 425 236 q 425 254 425 251 q 425 376 425 261 q 424 503 424 494 z "},"ö":{"ha":696,"x_min":56,"x_max":640,"o":"m 338 678 q 494 655 425 678 q 601 592 563 632 q 639 500 639 551 l 639 126 q 560 10 639 64 q 340 -44 482 -44 q 249 -35 296 -44 q 157 -4 201 -25 q 84 53 113 17 q 56 136 56 90 q 57 396 56 201 q 57 504 57 476 q 146 632 57 582 q 338 678 225 678 m 424 503 q 416 515 424 508 q 390 528 408 522 q 349 535 371 535 q 294 524 317 535 q 271 501 271 514 l 271 133 q 293 110 271 121 q 343 100 315 100 q 363 101 353 100 q 381 103 372 101 q 398 107 390 104 q 412 114 406 110 q 422 124 418 118 q 425 135 425 129 q 425 201 425 147 q 425 224 425 213 q 425 244 425 236 q 425 254 425 251 q 425 376 425 261 q 424 503 424 494 z "},"ø":{"ha":696,"x_min":56,"x_max":640,"o":"m 338 678 q 494 655 425 678 q 601 592 563 632 q 639 500 639 551 l 639 126 q 560 10 639 64 q 340 -44 482 -44 q 249 -35 296 -44 q 157 -4 201 -25 q 84 53 113 17 q 56 136 56 90 q 57 396 56 201 q 57 504 57 476 q 146 632 57 582 q 338 678 225 678 m 424 503 q 416 515 424 508 q 390 528 408 522 q 349 535 371 535 q 294 524 317 535 q 271 501 271 514 l 271 133 q 293 110 271 121 q 343 100 315 100 q 363 101 353 100 q 381 103 372 101 q 398 107 390 104 q 412 114 406 110 q 422 124 418 118 q 425 135 425 129 q 425 201 425 147 q 425 224 425 213 q 425 244 425 236 q 425 254 425 251 q 425 376 425 261 q 424 503 424 494 z "},"p":{"ha":656,"x_min":69,"x_max":642,"o":"m 372 667 q 497 649 442 667 q 581 604 551 632 q 626 548 611 576 q 642 492 642 519 l 642 407 q 567 281 642 329 q 394 232 492 232 l 285 232 l 285 -10 q 278 -26 285 -19 q 260 -33 271 -33 l 94 -33 q 76 -26 83 -33 q 69 -10 69 -19 q 69 329 69 46 q 69 642 69 636 q 77 660 69 653 q 94 667 85 667 l 372 667 m 285 525 l 285 371 l 354 371 q 428 422 428 371 q 428 451 428 428 q 428 493 428 479 q 408 516 428 507 q 360 525 389 525 l 285 525 z "},"q":{"ha":700,"x_min":56,"x_max":672,"o":"m 647 72 q 664 65 657 72 q 671 49 671 58 l 671 -47 q 664 -65 671 -57 q 647 -72 657 -72 q 478 -28 526 -72 q 340 -44 417 -44 q 249 -35 296 -44 q 157 -4 201 -25 q 84 53 113 17 q 56 136 56 90 q 57 396 56 214 q 57 504 57 486 q 146 632 57 582 q 338 678 225 678 q 555 628 471 678 q 639 500 639 578 l 639 126 q 626 74 639 100 q 647 72 636 72 m 424 503 q 416 515 424 508 q 390 528 408 522 q 349 535 371 535 q 294 524 317 535 q 271 501 271 514 l 271 133 q 293 110 271 121 q 343 100 315 100 q 401 108 376 100 q 425 135 425 117 q 425 201 425 161 q 425 254 425 238 q 425 376 425 261 q 424 503 424 494 z "},"r":{"ha":694,"x_min":69,"x_max":667,"o":"m 665 -6 q 666 -7 665 -6 q 667 -10 667 -8 q 665 -12 667 -11 q 665 -15 665 -14 q 665 -18 665 -17 q 657 -29 663 -24 q 656 -29 656 -29 q 653 -31 654 -31 q 650 -32 651 -32 q 647 -33 649 -32 q 644 -33 646 -33 q 642 -33 643 -33 l 469 -33 q 467 -33 468 -33 q 465 -33 465 -33 q 463 -33 464 -33 q 461 -32 461 -33 q 458 -31 460 -32 q 457 -31 457 -31 q 454 -28 456 -29 q 453 -28 453 -28 q 451 -26 453 -28 q 450 -24 450 -25 q 449 -22 449 -24 q 447 -21 447 -21 q 331 235 429 14 q 328 235 331 235 q 325 235 326 235 q 285 235 325 235 l 285 -10 q 278 -26 285 -19 q 260 -33 271 -33 l 94 -33 q 76 -26 83 -33 q 69 -10 69 -19 q 69 43 69 -6 q 69 176 69 92 q 69 329 69 260 q 69 642 69 636 q 77 660 69 653 q 94 667 85 667 l 372 667 q 497 649 442 667 q 581 604 551 632 q 626 548 611 576 q 642 492 642 519 l 642 407 q 554 279 642 329 q 536 268 544 274 q 663 3 638 51 q 664 1 663 3 q 665 -1 664 1 q 665 -3 665 -3 l 665 -4 q 665 -6 665 -4 m 285 525 l 285 376 q 304 376 292 376 q 354 376 353 376 q 428 422 428 376 q 428 451 428 428 q 428 493 428 479 q 408 516 428 507 q 360 525 389 525 l 285 525 z "},"s":{"ha":644,"x_min":28,"x_max":617,"o":"m 392 378 q 457 339 435 353 q 515 299 479 325 q 568 253 550 274 q 601 205 586 233 q 615 147 615 176 q 586 60 615 99 q 512 -1 557 21 q 419 -33 467 -22 q 326 -43 372 -43 q 105 10 182 -43 q 28 165 28 64 q 31 176 28 171 q 39 185 33 182 q 50 189 44 189 q 133 194 75 190 q 210 200 188 197 q 228 192 221 200 q 236 174 236 185 q 251 118 233 135 q 310 100 268 100 q 403 140 403 100 q 392 167 403 153 q 358 197 382 181 q 317 223 335 213 q 267 251 300 233 q 203 288 225 275 q 144 328 181 301 q 88 377 107 354 q 53 433 68 400 q 38 501 38 467 q 119 631 38 583 q 308 678 201 678 q 490 643 421 678 q 592 474 592 592 q 585 457 592 464 q 569 450 578 450 q 410 440 501 446 q 391 447 399 440 q 383 465 383 454 q 370 518 383 501 q 311 535 357 535 q 247 496 247 535 q 259 469 247 483 q 296 438 271 456 q 339 408 321 419 q 392 378 357 397 z "},"t":{"ha":610,"x_min":14,"x_max":596,"o":"m 571 667 q 588 660 581 667 q 594 642 594 653 q 594 608 594 642 q 594 586 594 600 q 594 563 594 572 q 594 550 594 553 q 588 532 594 539 q 569 525 581 525 q 554 525 567 525 q 522 525 542 525 q 485 525 501 525 q 414 525 431 525 l 414 -10 q 406 -26 414 -19 q 389 -33 399 -33 l 224 -33 q 207 -26 214 -33 q 200 -10 200 -19 q 199 329 200 6 q 199 525 199 333 q 165 525 183 525 q 39 525 53 525 q 21 533 28 525 q 14 550 14 540 l 14 642 q 21 660 14 653 q 39 667 28 667 l 571 667 z "},"u":{"ha":707,"x_min":69,"x_max":639,"o":"m 636 642 q 638 325 636 633 q 638 266 638 297 q 638 213 638 235 q 638 171 638 190 q 638 141 638 151 q 638 129 638 131 q 622 73 638 101 q 575 17 607 44 q 485 -26 543 -10 q 354 -43 428 -43 q 263 -33 310 -43 q 171 -2 215 -22 q 98 55 126 18 q 69 139 69 92 q 71 489 69 201 q 71 642 71 640 q 78 660 71 653 q 94 667 85 667 l 263 667 q 279 660 272 667 q 286 642 286 653 l 286 133 q 308 109 286 119 q 357 99 329 99 q 426 135 426 99 l 426 642 q 433 660 426 653 q 450 667 440 667 l 611 667 q 628 660 621 667 q 636 642 636 653 z "},"ù":{"ha":707,"x_min":69,"x_max":639,"o":"m 636 642 q 638 325 636 633 q 638 266 638 297 q 638 213 638 235 q 638 171 638 190 q 638 141 638 151 q 638 129 638 131 q 622 73 638 101 q 575 17 607 44 q 485 -26 543 -10 q 354 -43 428 -43 q 263 -33 310 -43 q 171 -2 215 -22 q 98 55 126 18 q 69 139 69 92 q 71 489 69 201 q 71 642 71 640 q 78 660 71 653 q 94 667 85 667 l 263 667 q 279 660 272 667 q 286 642 286 653 l 286 133 q 308 109 286 119 q 357 99 329 99 q 426 135 426 99 l 426 642 q 433 660 426 653 q 450 667 440 667 l 611 667 q 628 660 621 667 q 636 642 636 653 z "},"ú":{"ha":707,"x_min":69,"x_max":639,"o":"m 636 642 q 638 325 636 633 q 638 266 638 297 q 638 213 638 235 q 638 171 638 190 q 638 141 638 151 q 638 129 638 131 q 622 73 638 101 q 575 17 607 44 q 485 -26 543 -10 q 354 -43 428 -43 q 263 -33 310 -43 q 171 -2 215 -22 q 98 55 126 18 q 69 139 69 92 q 71 489 69 201 q 71 642 71 640 q 78 660 71 653 q 94 667 85 667 l 263 667 q 279 660 272 667 q 286 642 286 653 l 286 133 q 308 109 286 119 q 357 99 329 99 q 426 135 426 99 l 426 642 q 433 660 426 653 q 450 667 440 667 l 611 667 q 628 660 621 667 q 636 642 636 653 z "},"û":{"ha":707,"x_min":69,"x_max":639,"o":"m 636 642 q 638 325 636 633 q 638 266 638 297 q 638 213 638 235 q 638 171 638 190 q 638 141 638 151 q 638 129 638 131 q 622 73 638 101 q 575 17 607 44 q 485 -26 543 -10 q 354 -43 428 -43 q 263 -33 310 -43 q 171 -2 215 -22 q 98 55 126 18 q 69 139 69 92 q 71 489 69 201 q 71 642 71 640 q 78 660 71 653 q 94 667 85 667 l 263 667 q 279 660 272 667 q 286 642 286 653 l 286 133 q 308 109 286 119 q 357 99 329 99 q 426 135 426 99 l 426 642 q 433 660 426 653 q 450 667 440 667 l 611 667 q 628 660 621 667 q 636 642 636 653 z "},"ü":{"ha":707,"x_min":69,"x_max":639,"o":"m 636 642 q 638 325 636 633 q 638 266 638 297 q 638 213 638 235 q 638 171 638 190 q 638 141 638 151 q 638 129 638 131 q 622 73 638 101 q 575 17 607 44 q 485 -26 543 -10 q 354 -43 428 -43 q 263 -33 310 -43 q 171 -2 215 -22 q 98 55 126 18 q 69 139 69 92 q 71 489 69 201 q 71 642 71 640 q 78 660 71 653 q 94 667 85 667 l 263 667 q 279 660 272 667 q 286 642 286 653 l 286 133 q 308 109 286 119 q 357 99 329 99 q 426 135 426 99 l 426 642 q 433 660 426 653 q 450 667 440 667 l 611 667 q 628 660 621 667 q 636 642 636 653 z "},"v":{"ha":693,"x_min":25,"x_max":668,"o":"m 640 667 q 660 657 653 667 q 664 636 667 647 q 482 -18 507 53 q 460 -33 476 -33 l 235 -33 q 211 -14 215 -33 q 97 392 207 4 q 28 636 32 622 q 33 658 25 649 q 53 667 40 667 l 224 667 q 247 649 242 667 q 350 235 274 554 q 435 590 375 342 q 450 647 446 633 q 474 667 454 667 l 640 667 z "},"w":{"ha":999,"x_min":39,"x_max":960,"o":"m 932 667 q 951 658 943 667 q 956 636 958 649 q 922 504 954 628 q 796 -14 801 19 q 771 -33 792 -33 l 589 -33 q 564 -15 569 -33 q 499 301 558 11 q 459 106 478 201 q 435 -14 440 11 q 411 -33 432 -33 l 228 -33 q 204 -15 208 -33 q 138 251 200 4 q 42 638 46 618 q 47 658 40 649 q 67 667 54 667 l 232 667 q 256 647 251 667 q 325 329 272 582 q 376 567 343 414 q 394 647 392 636 q 418 667 399 667 l 451 667 l 586 667 q 610 647 606 667 q 678 333 631 558 q 728 568 693 410 q 746 647 742 632 q 769 667 749 667 l 932 667 z "},"x":{"ha":758,"x_min":38,"x_max":721,"o":"m 506 325 q 713 4 613 163 q 714 -21 721 -8 q 692 -33 707 -33 l 514 -33 q 493 -22 500 -33 l 492 -22 q 372 171 406 119 q 359 148 367 161 q 341 117 351 135 q 325 89 331 100 q 260 -22 278 10 q 239 -33 253 -33 l 67 -33 q 44 -21 51 -33 q 46 4 38 -8 q 92 75 50 11 q 256 328 222 278 q 133 517 232 363 q 60 631 61 626 q 58 654 51 642 q 81 667 65 667 q 231 667 81 667 l 258 667 q 279 656 272 667 q 389 481 293 635 q 395 492 392 486 q 402 506 399 499 q 408 517 406 513 q 494 660 483 649 q 511 667 501 667 q 540 667 511 667 q 686 667 674 667 q 706 653 700 665 q 706 629 713 640 q 649 542 694 614 q 506 325 524 351 z "},"y":{"ha":689,"x_min":10,"x_max":679,"o":"m 650 667 q 672 654 665 667 q 671 629 679 642 q 453 260 585 489 q 453 179 453 215 q 451 -10 451 42 q 444 -26 451 -19 q 428 -33 438 -33 l 261 -33 q 243 -26 250 -33 q 236 -10 236 -19 q 236 38 236 0 q 238 257 239 221 q 17 631 201 314 q 17 655 10 643 q 39 667 24 667 l 215 667 q 238 654 231 667 q 344 447 249 633 q 357 469 350 457 q 456 654 444 635 q 476 667 463 667 q 495 667 482 667 q 530 667 508 667 q 567 667 551 667 q 650 667 628 667 z "},"ý":{"ha":689,"x_min":10,"x_max":679,"o":"m 650 667 q 672 654 665 667 q 671 629 679 642 q 453 260 585 489 q 453 179 453 215 q 451 -10 451 42 q 444 -26 451 -19 q 428 -33 438 -33 l 261 -33 q 243 -26 250 -33 q 236 -10 236 -19 q 236 38 236 0 q 238 257 239 221 q 17 631 201 314 q 17 655 10 643 q 39 667 24 667 l 215 667 q 238 654 231 667 q 344 447 249 633 q 357 469 350 457 q 456 654 444 635 q 476 667 463 667 q 495 667 482 667 q 530 667 508 667 q 567 667 551 667 q 650 667 628 667 z "},"ÿ":{"ha":689,"x_min":10,"x_max":679,"o":"m 650 667 q 672 654 665 667 q 671 629 679 642 q 453 260 585 489 q 453 179 453 215 q 451 -10 451 42 q 444 -26 451 -19 q 428 -33 438 -33 l 261 -33 q 243 -26 250 -33 q 236 -10 236 -19 q 236 38 236 0 q 238 257 239 221 q 17 631 201 314 q 17 655 10 643 q 39 667 24 667 l 215 667 q 238 654 231 667 q 344 447 249 633 q 357 469 350 457 q 456 654 444 635 q 476 667 463 667 q 495 667 482 667 q 530 667 508 667 q 567 667 551 667 q 650 667 628 667 z "},"z":{"ha":688,"x_min":69,"x_max":619,"o":"m 613 542 l 611 542 q 325 108 589 513 q 507 108 458 108 q 594 108 578 108 q 611 101 604 108 q 618 83 618 93 q 618 24 618 65 q 618 -10 618 10 q 611 -26 618 -19 q 593 -33 604 -33 l 94 -33 q 76 -26 83 -33 q 69 -10 69 -19 q 69 15 69 -1 q 71 75 71 50 q 75 88 71 82 q 283 404 85 106 q 363 525 342 493 l 94 525 q 82 528 88 525 q 73 538 76 532 q 69 550 69 543 q 69 586 69 554 q 69 642 69 618 q 76 660 69 653 q 94 667 83 667 l 594 667 q 611 660 604 667 q 618 642 618 653 l 618 558 q 613 543 618 550 l 613 542 z "},"{":{"ha":408,"x_min":69,"x_max":340,"o":"m 326 72 q 338 63 338 72 q 338 35 338 54 q 336 -12 336 7 q 324 -22 336 -22 q 257 -18 286 -22 q 196 -1 228 -14 q 147 39 164 11 q 129 108 129 67 q 129 194 129 142 q 129 256 129 238 q 118 279 129 274 q 86 285 107 285 q 83 285 85 285 q 81 285 82 285 q 69 294 69 286 q 69 314 69 299 q 69 368 69 350 q 82 378 69 378 q 119 385 110 378 q 129 407 129 392 q 132 504 129 419 q 133 576 133 553 q 326 686 136 686 q 339 675 339 686 q 339 671 339 675 l 339 665 q 339 601 339 613 q 328 592 339 592 q 273 585 289 592 q 257 558 257 579 q 257 524 257 556 q 257 413 257 454 q 210 332 257 354 q 257 254 257 306 q 258 197 257 243 q 260 100 260 125 q 267 82 260 88 q 319 72 279 71 q 326 72 324 72 z "},"|":{"ha":268,"x_min":69,"x_max":199,"o":"m 199 785 l 199 -119 q 186 -129 199 -129 q 108 -131 160 -129 q 83 -131 86 -131 q 71 -121 71 -131 q 71 60 71 -118 q 69 785 69 669 q 82 794 69 794 l 186 794 q 199 785 199 794 z "},"}":{"ha":408,"x_min":69,"x_max":340,"o":"m 328 378 q 339 368 339 378 q 339 314 339 339 q 339 294 339 307 q 328 285 339 286 l 325 285 l 324 285 q 306 284 313 285 q 293 281 300 283 q 283 272 286 278 q 279 256 279 265 q 279 194 279 238 q 279 108 279 142 q 262 39 279 67 q 213 -1 244 11 q 151 -18 181 -14 q 85 -22 122 -22 q 72 -12 72 -22 q 72 35 72 8 q 71 63 71 53 q 83 72 71 72 q 89 72 85 72 q 142 82 129 71 q 150 100 150 88 q 151 197 150 125 q 151 254 151 243 q 199 332 151 306 q 151 413 151 354 q 151 524 151 447 q 151 558 151 549 q 136 585 151 579 q 82 592 121 592 q 69 601 69 592 q 69 665 69 629 q 69 672 69 668 q 69 675 69 675 q 82 686 69 686 q 275 576 272 686 q 276 504 275 569 q 279 407 279 422 q 289 385 279 392 q 328 378 299 378 z "},"~":{"ha":568,"x_min":65,"x_max":503,"o":"m 494 358 q 497 346 501 353 l 496 343 q 360 250 436 250 q 260 283 321 250 q 214 303 225 303 q 157 258 189 303 q 153 251 154 253 q 144 249 150 249 q 143 249 143 249 q 136 250 139 249 q 117 263 131 253 q 74 289 88 281 q 71 303 65 294 q 74 305 72 303 q 75 307 75 307 q 207 397 140 397 q 307 364 244 397 q 356 346 344 346 q 410 388 381 346 q 417 396 415 394 q 432 397 424 403 q 494 358 463 379 z "}," ":{"ha":364,"x_min":0,"x_max":0,"o":""},"©":{"ha":815,"x_min":69,"x_max":747,"o":"m 411 613 q 648 527 550 613 q 746 321 746 442 q 647 115 746 197 q 399 32 547 32 q 167 117 265 32 q 69 321 69 203 q 169 525 69 440 q 411 613 269 613 m 403 90 q 593 156 517 90 q 669 320 669 222 q 594 486 669 418 q 407 554 518 554 q 223 486 299 554 q 147 321 147 418 q 181 204 147 257 q 274 121 215 151 q 403 90 332 90 m 568 194 q 571 185 571 188 q 567 174 574 178 q 506 152 546 161 q 426 143 465 143 q 281 187 342 143 q 221 322 221 231 q 241 399 221 364 q 292 453 261 433 q 359 485 324 474 q 426 496 394 496 q 561 469 510 496 q 567 458 569 465 l 565 457 q 553 424 558 438 q 547 417 551 419 q 538 417 542 415 l 532 419 q 422 436 483 436 q 367 426 394 436 q 319 389 340 415 q 299 328 299 363 q 314 260 299 288 q 354 221 329 232 q 397 206 379 210 q 431 203 414 203 q 542 225 488 203 q 552 225 547 226 q 558 219 557 224 q 568 194 561 214 z "},"­":{"ha":0,"x_min":0,"x_max":0,"o":""},"®":{"ha":500,"x_min":69,"x_max":431,"o":"m 251 633 q 341 613 300 633 q 406 556 382 592 q 431 478 431 519 q 377 368 431 413 q 244 324 324 324 q 122 369 174 324 q 69 478 69 415 q 123 588 69 542 q 251 633 176 633 m 351 406 q 379 478 379 436 q 342 560 379 526 q 250 593 304 593 q 168 567 203 593 q 121 478 121 533 q 158 397 121 429 q 247 364 194 364 q 346 400 307 364 q 340 399 343 399 q 317 399 339 399 q 296 399 303 399 q 285 404 289 399 q 269 446 279 417 l 267 451 q 247 458 265 458 q 238 458 242 458 q 238 410 238 428 q 226 400 238 400 q 204 400 215 400 q 185 400 192 400 q 172 410 172 400 q 173 414 172 411 q 174 422 174 417 q 174 433 174 428 q 174 557 174 522 q 178 564 174 561 q 183 567 181 567 q 324 556 283 583 q 344 518 344 542 q 319 482 344 494 q 332 465 328 474 q 339 446 333 463 q 351 413 347 419 q 351 406 353 410 m 275 517 q 269 524 275 521 q 239 528 260 531 q 239 508 239 525 q 239 506 239 508 q 239 503 239 504 q 241 503 239 503 q 243 503 243 503 q 250 503 246 503 q 275 517 275 503 z "},"±":{"ha":728,"x_min":68,"x_max":665,"o":"m 650 75 q 650 31 665 63 q 646 15 646 18 q 632 3 646 7 q 572 -1 618 0 q 425 -3 517 -3 q 196 0 307 -3 q 115 3 146 1 q 80 6 88 4 q 72 15 72 8 l 72 68 q 84 78 72 78 q 96 68 96 78 l 100 68 q 111 78 100 78 q 193 79 121 78 q 650 75 633 88 m 82 293 q 69 303 69 293 l 69 357 q 82 367 69 367 q 106 367 86 367 q 155 367 125 367 q 208 367 185 367 q 313 367 289 367 l 313 411 q 313 533 313 451 q 325 543 313 543 q 349 543 333 543 q 369 543 364 543 q 393 543 379 543 q 406 533 406 543 l 406 464 q 406 367 406 390 q 507 367 465 367 q 564 367 533 367 q 615 367 594 367 q 638 367 635 367 q 649 357 649 367 l 649 303 q 638 293 649 293 q 503 293 631 293 q 406 292 422 292 q 406 239 406 278 q 406 191 406 221 q 406 144 406 161 q 406 121 406 126 q 394 111 406 111 l 324 111 q 313 121 313 111 q 313 256 313 161 l 313 293 q 185 293 293 293 q 82 293 85 293 z "},"´":{"ha":331,"x_min":67,"x_max":264,"o":"m 260 653 q 260 643 263 649 q 206 563 257 642 q 164 499 169 507 q 153 493 160 493 q 151 493 153 493 q 147 493 149 493 q 99 493 139 493 q 82 493 82 493 q 72 498 75 493 q 71 507 68 503 q 104 586 72 511 q 132 653 129 647 q 143 658 135 658 l 249 658 q 260 653 256 658 z "},"×":{"ha":719,"x_min":65,"x_max":656,"o":"m 424 253 q 646 63 576 125 q 646 49 654 56 q 635 38 642 44 q 597 8 610 18 q 596 7 597 7 q 594 6 594 6 q 593 6 594 6 q 589 6 592 6 q 588 6 589 6 q 585 6 586 6 q 583 7 583 7 q 582 8 582 7 q 581 8 582 8 q 581 9 581 8 q 579 10 581 10 q 439 132 561 29 q 361 200 376 186 q 138 8 142 13 q 128 6 133 6 q 119 8 124 6 q 104 22 115 14 q 74 49 89 35 q 75 63 67 56 q 218 186 90 75 q 296 253 276 238 q 74 444 135 393 q 69 451 69 447 q 74 458 69 456 q 121 497 94 476 q 138 497 129 504 q 324 338 153 485 q 360 307 351 315 q 478 408 382 325 q 582 497 575 492 q 599 497 590 504 q 632 471 606 492 q 646 458 643 461 q 647 444 654 451 q 424 253 638 436 z "},"÷":{"ha":719,"x_min":69,"x_max":650,"o":"m 650 249 q 650 231 650 243 q 638 219 650 219 l 82 219 q 69 231 69 219 q 69 251 69 244 q 69 265 69 254 q 69 285 69 275 q 82 294 69 294 q 417 294 201 294 q 519 294 461 294 q 605 294 576 294 q 638 294 633 294 q 650 285 650 294 q 650 249 650 268 m 360 356 q 307 374 326 356 q 290 414 290 390 q 310 458 290 439 q 363 476 329 476 q 411 458 393 476 q 429 414 429 439 q 413 374 429 390 q 360 356 393 356 m 363 158 q 411 140 393 158 q 429 97 429 121 q 413 57 429 72 q 360 38 393 38 q 307 56 326 38 q 290 96 290 72 q 310 140 290 121 q 363 158 329 158 z "},"‘":{"ha":276,"x_min":69,"x_max":208,"o":"m 196 564 q 207 554 207 564 q 207 526 207 539 q 207 458 207 485 q 194 449 207 449 q 149 449 171 449 q 82 449 121 449 q 69 458 69 449 q 69 477 69 463 q 69 497 69 492 q 69 544 69 531 q 69 546 69 544 l 71 547 q 71 549 71 549 q 132 653 96 586 q 142 658 135 658 q 172 658 147 658 q 196 658 189 658 q 198 658 197 658 q 199 657 199 657 q 201 657 200 657 q 201 656 201 657 q 206 653 204 656 q 207 649 207 650 q 207 647 207 647 q 207 646 207 646 l 207 644 q 186 599 204 640 q 171 563 176 574 q 196 564 189 564 z "},"’":{"ha":276,"x_min":69,"x_max":208,"o":"m 196 658 q 207 649 207 658 q 207 610 207 640 q 207 587 207 604 q 207 563 207 569 q 207 560 207 561 l 207 558 q 206 557 206 558 q 146 454 183 524 q 135 447 142 447 q 104 449 126 447 q 82 449 88 449 q 79 449 81 449 q 76 449 78 449 q 71 453 74 450 q 71 454 71 453 q 69 456 69 456 q 69 456 69 456 q 69 458 69 457 q 69 460 69 460 q 71 463 69 461 q 90 507 72 468 q 106 544 100 531 q 82 543 88 543 q 69 553 69 543 q 69 579 69 554 q 69 649 69 622 q 82 658 69 658 q 90 658 83 658 q 108 658 97 658 q 128 658 118 658 q 196 658 181 658 z "},"“":{"ha":447,"x_min":69,"x_max":378,"o":"m 365 564 q 378 554 378 564 q 378 526 378 539 q 378 458 378 464 q 365 449 378 449 q 319 449 342 449 q 251 449 292 449 q 240 458 240 449 q 240 497 240 467 q 240 544 240 522 q 240 546 240 544 l 240 547 q 242 547 240 547 q 242 549 242 549 q 301 653 267 586 q 313 658 306 658 q 343 658 317 658 q 365 658 360 658 l 367 658 q 368 658 367 658 q 372 657 369 657 q 372 656 372 657 q 376 653 375 656 q 377 651 376 653 q 378 649 378 650 q 378 647 378 647 q 378 646 378 646 l 376 644 q 357 599 375 639 q 342 563 344 568 q 365 564 360 564 m 206 644 q 186 599 204 639 q 171 563 174 567 q 196 564 189 564 q 207 554 207 564 q 207 526 207 551 q 207 458 207 486 q 194 449 207 449 q 149 449 171 449 q 82 449 121 449 q 69 458 69 449 q 69 497 69 467 q 69 519 69 501 q 69 544 69 538 q 70 547 69 546 q 71 547 71 547 q 71 549 71 549 q 132 653 93 582 q 142 658 135 658 q 172 658 147 658 q 196 658 189 658 q 197 657 197 658 q 199 657 199 657 l 200 657 q 206 654 203 656 q 206 653 206 653 q 207 651 207 651 q 207 649 207 650 q 207 648 207 649 q 207 647 207 647 q 207 644 207 646 l 206 644 z "},"”":{"ha":449,"x_min":69,"x_max":381,"o":"m 368 658 q 379 649 379 658 q 379 610 379 640 q 379 563 379 583 q 379 560 379 561 q 379 558 379 560 q 378 557 379 558 q 318 454 356 524 q 307 449 315 449 q 278 449 299 449 q 254 449 260 449 q 251 449 253 449 q 250 449 251 449 q 244 451 247 450 q 244 453 244 451 l 244 453 q 243 455 243 454 q 242 456 243 456 q 242 456 242 456 q 242 458 242 457 q 242 460 242 460 q 243 463 243 461 q 263 507 246 467 q 278 544 275 538 q 254 543 261 543 q 242 553 242 543 q 242 579 242 554 q 243 649 243 643 q 254 658 243 658 q 263 658 256 658 q 280 658 269 658 q 301 658 290 658 q 368 658 354 658 m 196 658 q 207 649 207 658 q 207 610 207 640 q 207 563 207 583 q 207 560 207 561 q 206 558 207 560 q 206 557 206 558 q 146 454 183 525 q 135 449 142 449 q 104 449 126 449 q 82 449 88 449 q 79 449 81 449 q 76 449 78 449 q 72 451 75 450 q 72 452 72 451 q 71 453 72 453 q 69 456 71 454 q 69 456 69 456 q 69 458 69 457 q 69 460 69 460 q 71 463 69 461 q 90 507 72 467 q 106 544 103 538 q 82 543 88 543 q 69 553 69 543 q 69 579 69 554 q 69 649 69 643 q 82 658 69 658 q 88 658 83 658 q 98 658 92 658 q 113 658 104 658 q 128 658 121 658 q 196 658 181 658 z "},"„":{"ha":449,"x_min":68,"x_max":381,"o":"m 368 121 q 379 111 379 121 q 379 72 379 103 q 379 25 379 38 q 379 24 379 25 q 379 22 379 24 q 379 21 379 22 q 378 19 379 21 q 318 -83 356 -14 q 307 -89 315 -89 q 278 -89 307 -89 q 254 -89 256 -89 q 251 -89 253 -89 q 250 -87 250 -89 l 249 -87 q 246 -86 247 -87 q 243 -82 243 -85 q 242 -80 242 -81 q 242 -78 242 -79 q 242 -76 242 -78 q 243 -75 243 -76 q 263 -31 246 -69 q 269 -17 265 -25 q 274 -3 272 -8 q 278 7 276 3 q 254 6 260 6 q 242 15 242 6 q 242 42 242 17 q 243 111 243 85 q 254 121 243 121 q 300 121 278 121 q 342 121 317 121 q 368 121 367 121 m 196 121 q 207 111 207 121 q 207 72 207 103 q 207 50 207 68 q 207 25 207 32 q 207 24 207 24 q 206 22 207 22 q 206 19 206 21 q 146 -83 183 -14 q 135 -89 142 -89 q 104 -89 135 -89 q 82 -89 83 -89 q 79 -89 81 -89 q 76 -87 78 -89 q 76 -87 76 -87 q 74 -87 75 -87 q 72 -85 72 -86 q 72 -85 72 -85 q 71 -83 71 -85 q 69 -79 69 -82 q 69 -77 69 -78 q 71 -75 69 -76 q 90 -31 74 -69 q 106 7 100 -6 q 82 6 88 6 q 69 15 69 6 q 69 42 69 17 q 69 111 69 85 q 82 121 69 121 q 128 121 106 121 q 169 121 144 121 q 196 121 194 121 z "},"‰":{"ha":1349,"x_min":68,"x_max":1279,"o":"m 1107 381 q 1233 330 1188 381 q 1279 190 1279 279 q 1229 52 1279 104 q 1096 0 1179 0 q 972 53 1021 0 q 924 189 924 107 q 978 331 924 282 q 1107 381 1033 381 m 1101 67 q 1162 106 1139 67 q 1185 193 1185 144 q 1163 278 1185 244 q 1101 313 1140 313 q 1043 276 1065 313 q 1022 190 1022 242 q 1031 131 1022 158 q 1058 85 1040 104 q 1101 67 1076 67 m 713 381 q 839 330 793 381 q 885 190 885 279 q 862 90 885 133 q 797 24 839 47 q 701 0 756 0 q 612 24 651 0 q 550 92 572 49 q 528 189 528 135 q 556 297 528 251 q 626 361 585 342 q 713 381 667 381 m 707 67 q 767 106 744 67 q 790 193 790 144 q 768 278 790 244 q 707 313 744 313 q 649 276 671 313 q 628 190 628 242 q 649 103 628 140 q 707 67 669 67 m 713 624 q 722 619 718 624 q 724 610 725 615 q 478 247 721 604 q 311 0 321 15 q 300 -4 307 -4 q 261 -4 285 -4 q 240 -4 244 -4 q 230 1 233 -4 q 229 10 226 6 q 488 390 239 26 q 642 618 617 581 q 651 624 644 624 l 713 624 m 425 433 q 375 294 425 346 q 242 242 325 242 q 118 296 167 242 q 69 432 69 350 q 125 574 69 524 q 254 624 181 624 q 380 573 335 624 q 425 433 425 522 m 168 433 q 190 347 168 383 q 247 310 211 310 q 308 348 286 310 q 331 436 331 386 q 308 519 331 486 q 247 556 286 554 q 190 519 211 556 q 168 433 168 485 z "},"™":{"ha":783,"x_min":69,"x_max":715,"o":"m 694 593 q 714 379 714 407 q 703 369 714 369 q 667 369 683 369 q 644 369 650 369 q 632 378 633 369 q 629 425 632 379 q 622 540 624 513 q 563 379 578 421 q 550 374 560 374 q 513 372 533 374 q 490 372 496 372 q 479 379 482 372 q 422 533 461 424 q 417 442 421 517 q 413 378 414 399 q 400 369 411 369 q 372 369 393 369 q 344 369 356 369 q 335 373 339 369 q 332 381 332 376 q 347 540 333 403 q 354 626 353 607 q 367 635 356 635 q 418 635 386 635 q 435 635 422 635 q 453 635 447 635 q 464 628 461 635 q 469 618 464 628 q 525 478 510 526 q 585 628 571 593 q 596 635 588 635 q 628 635 610 635 q 649 635 629 635 q 681 635 669 635 q 692 626 690 635 q 694 593 692 619 m 339 585 q 328 575 339 575 q 288 575 324 575 q 246 574 278 575 q 246 565 246 572 q 246 379 243 410 q 242 372 246 375 q 233 369 239 369 q 175 369 189 369 q 164 379 164 369 q 164 546 163 401 q 164 552 164 549 q 164 558 164 556 q 164 564 164 561 q 164 569 164 567 q 164 574 164 572 q 118 574 118 574 q 81 575 93 575 q 69 585 69 575 q 69 603 69 590 q 69 625 69 615 q 82 635 69 635 l 328 635 q 339 625 339 635 q 339 610 339 621 q 339 598 339 607 q 339 585 339 589 z "},"≠":{"ha":719,"x_min":69,"x_max":651,"o":"m 650 196 q 650 186 650 193 q 650 175 650 179 q 650 142 650 154 q 638 132 650 132 l 313 132 q 232 26 250 50 q 222 22 228 22 l 151 22 q 142 26 146 22 q 142 36 139 31 q 214 132 143 40 l 82 132 q 69 142 69 132 q 69 175 69 160 q 69 183 69 176 q 69 196 69 190 q 82 206 69 206 q 97 206 85 206 q 127 206 108 206 q 166 206 146 206 q 215 206 186 206 q 269 206 244 206 q 273 209 271 206 q 276 214 275 213 q 314 263 289 229 q 351 311 339 296 l 82 311 q 69 321 69 311 q 69 354 69 339 q 69 363 69 357 q 69 375 69 369 q 82 385 69 385 q 139 385 89 385 q 267 385 189 385 q 407 385 346 385 q 486 490 474 472 q 496 496 490 496 q 540 494 519 496 q 567 496 560 494 q 578 489 574 496 q 575 479 581 483 q 504 385 571 474 q 569 385 536 385 q 619 385 603 385 q 638 385 636 385 q 650 375 650 385 q 650 365 650 372 q 650 354 650 358 q 650 321 650 333 q 638 311 650 311 l 449 311 q 426 283 444 307 q 397 244 407 258 q 384 226 394 240 q 368 206 374 213 q 461 206 428 206 q 546 206 501 206 q 613 206 590 206 q 638 206 636 206 q 650 196 650 206 z "},"≤":{"ha":665,"x_min":68,"x_max":596,"o":"m 596 49 q 596 15 596 26 q 583 6 596 6 l 83 6 q 72 15 72 6 q 71 47 72 40 q 71 69 71 54 q 83 79 71 79 q 146 79 93 79 q 285 79 199 79 q 425 79 371 79 q 473 79 447 79 q 516 79 499 79 q 549 79 533 79 q 574 79 565 79 q 583 79 582 79 q 596 69 596 79 q 596 49 596 56 m 578 96 q 76 271 399 157 q 69 281 69 274 l 69 332 q 76 342 69 339 q 204 387 92 347 q 437 468 317 426 q 578 515 557 510 q 588 515 583 518 q 593 507 593 511 q 593 475 593 489 q 593 446 594 453 q 586 438 593 440 q 200 306 414 381 q 586 174 465 217 q 593 165 593 172 l 593 153 q 593 106 593 132 q 589 97 593 100 q 582 96 585 96 q 578 96 579 96 z "},"≥":{"ha":664,"x_min":68,"x_max":594,"o":"m 586 342 q 594 332 594 339 l 594 281 q 586 271 594 274 q 86 96 263 156 q 82 96 83 96 q 75 97 78 96 q 69 106 69 100 q 69 133 69 118 q 69 153 69 149 l 69 165 q 76 174 69 172 q 463 306 208 221 q 76 438 250 381 q 69 446 69 440 q 69 475 69 453 q 69 507 69 494 q 75 515 69 511 q 86 515 81 518 q 336 430 115 507 q 586 342 557 353 m 593 69 q 593 49 593 56 q 593 15 593 28 q 582 6 593 6 l 82 6 q 69 15 69 6 q 69 47 69 40 q 69 69 69 54 q 82 79 69 79 q 143 79 90 79 q 282 79 196 79 q 422 79 368 79 q 471 79 446 79 q 514 79 496 79 q 547 79 532 79 q 572 79 563 79 q 582 79 581 79 q 593 69 593 79 z "}}}
